<svg version="1.2" xmlns="http://www.w3.org/2000/svg" viewBox="0 0 1394 336" width="150" height="10">
	<title>good</title>
	<style>
		.s0 { fill: #309255 } 
		.s1 { fill: none } 
		.s2 { fill: #309255;stroke: #309255;stroke-width: 3.1 } 
		.s3 { fill: #282828 } 
		.s4 { fill: #0a0a0a;stroke: #309255;stroke-width: 4.1 } 
	</style>
	<g id="outer-wrapper">
		<g id="inner-wrapper">
			<path class="s0" d="m145.5 11.9c-35 0-68.5 13.8-93.2 38.5-24.7 24.7-38.6 58.3-38.6 93.2 0 34.9 13.9 68.5 38.6 93.2 24.7 24.7 58.2 38.6 93.2 38.6 34.9 0 68.4-13.9 93.1-38.6 24.7-24.7 38.6-58.3 38.6-93.2 0-34.9-13.9-68.5-38.6-93.2-24.7-24.7-58.2-38.5-93.1-38.5z"/>
			<path class="s1" d="m292.2 31.2h1165.4v229h-1165.4z"/>
			<path fill-rule="evenodd" class="s2" d="m374.5 212h-64.1q-9.3 0-9.3-9.4v-23.7q0-9.3 9.3-9.3h54.5q1.7 0 2.5-1.2 0.8-1.2 0.8-2.6 0-4.7-3.5-4.9l-30.4-4.3q-10.1-1.6-17.6-5.3-7.5-3.8-11.6-11.1-4-7.3-4-19.2v-21.3q0-18.3 11.5-28 11.6-9.7 32.5-9.7h56.7q9.3 0 9.3 9.3v24.1q0 9.4-9.3 9.4h-47.2q-1.6 0-2.5 1.2-1 1.2-1 2.8 0 4.1 3.7 4.5l30.2 4q10.1 1.4 17.6 5.3 7.5 3.8 11.7 11.1 4.1 7.3 4.1 19.3v21.3q0 18.2-11.6 27.9-11.7 9.8-32.3 9.8zm-64.1-2.1h64.1q19.6 0 30.8-9.2 11.1-9.2 11.1-26.4v-21.3q0-11.4-3.9-18.3-4-6.8-11.1-10.4-7.1-3.5-16.6-5l-30.2-4q-5.5-0.6-5.5-6.5 0-6.1 5.5-6.1h47.2q7.3 0 7.3-7.3v-24.1q0-7.3-7.3-7.3h-56.7q-19.7 0-30.8 9.1-11.2 9.2-11.2 26.6v21.3q0 17 8.6 24.2 8.6 7.2 22.8 9.4l30.4 4.3q2.7 0.2 4 1.8 1.3 1.6 1.3 5.1 0 2.4-1.3 4.1-1.3 1.7-4 1.7h-54.5q-7.3 0-7.3 7.3v23.7q0 7.3 7.3 7.3zm80.5-127.6v2h-45q-8.5 0-13.6 4.6-5.1 4.7-5.1 11.8v16.6q0 7.1 2.9 9.8 2.8 2.8 7.5 3.8l42.7 8.7q6.1 1.2 10.1 5.2 3.9 3.9 3.9 14.7v11.7q0 8.9-6.1 14.7-6 5.8-16.4 5.8h-50.4v-2h50.4q9.5 0 15-5.2 5.5-5.2 5.5-13.3v-11.7q0-9.6-3.4-13.1-3.3-3.5-9-4.8l-42.7-8.7q-5.3-1-8.6-4.1-3.4-3.2-3.4-11.5v-16.6q0-8.1 5.7-13.3 5.7-5.1 15-5.1zm144.7 129.7h-49.5q-26.7 0-39.3-10.7-12.5-10.6-12.5-32.7v-63q0-22.3 12.5-33 12.6-10.6 39.3-10.6h49.5q9.3 0 9.3 9.3v24.5q0 9.4-9.3 9.4h-40.8q-10.3 0-10.3 8.1v48.2q0 4.3 2.6 6 2.7 1.7 7.7 1.7h40.8q9.3 0 9.3 9.3v24.1q0 9.4-9.3 9.4zm-49.5-2.1h49.5q7.3 0 7.3-7.3v-24.1q0-7.3-7.3-7.3h-40.8q-12.3 0-12.3-9.7v-48.2q0-10.2 12.3-10.2h40.8q7.3 0 7.3-7.3v-24.5q0-7.3-7.3-7.3h-49.5q-25.5 0-37.7 10.1-12.1 10.2-12.1 31.5v63q0 21.1 12.1 31.2 12.2 10.1 37.7 10.1zm38.3-20.2v2h-33.8q-13.2 0-20.2-2.6-7-2.7-9.6-8.4-2.6-5.8-2.6-15.1v-56.8q0-9.7 2.7-15.5 2.7-5.8 9.7-8.4 7-2.6 20-2.6h33.8v2h-33.8q-12 0-18.6 2.3-6.5 2.3-9.2 7.7-2.6 5.4-2.6 14.5v56.8q0 8.7 2.5 14 2.6 5.4 9.1 7.7 6.6 2.4 18.8 2.4zm79.8 22.3h-31.2q-9.3 0-9.3-9.4v-131.3q0-9.3 9.3-9.3h67.5q16.2 0 25.4 4.5 9.1 4.6 12.8 12.7 3.8 8.1 3.8 18.7v9.3q0 7.5-1.8 13.1-1.9 5.5-6.1 9 9.7 2.6 15.4 10.4 5.6 7.8 5.6 20v42.9q0 9.4-9.3 9.4h-31.4q-9.3 0-9.3-9.4v-31q0-3.4-1.2-5-1.2-1.7-4.5-1.7h-26.3v37.7q0 9.4-9.4 9.4zm-31.2-2.1h31.2q7.3 0 7.3-7.3v-39.7h28.4q4.3 0 6 2 1.7 2.1 1.7 6.7v31q0 7.3 7.3 7.3h31.4q7.3 0 7.3-7.3v-42.9q0-12.8-6.7-20.5-6.7-7.7-17.8-8.9 6.5-2.9 8.9-8.7 2.4-5.9 2.4-14.4v-9.3q0-10.2-3.6-17.8-3.6-7.6-12.4-11.8-8.7-4.3-23.9-4.3h-67.5q-7.3 0-7.3 7.3v131.3q0 7.3 7.3 7.3zm98.5-18.2h-2v-27.2q0-19.8-22.5-19.8h-57.3v47h-2.1v-109.4h46.2q12 0 17.6 6.4 5.5 6.5 5.5 16.7v13.9q0 9.2-2.4 15.2-2.4 6.1-9.7 8.4h2.2q24.5 0 24.5 21.6zm-81.8-107.4v58.6h44.1q12.6 0 16.9-6.1 4.2-6.1 4.2-17.2v-14.2q0-9.5-5.2-15.3-5.1-5.8-15.9-5.8zm21.9 42.2v-26h15.2q5.3 0 7.1 2.8 1.8 2.7 1.8 6.8v6.9q0 4-1.8 6.7-1.8 2.8-7.1 2.8zm15.2-23.9h-13.2v21.9h13.2q4.3 0 5.6-2.2 1.3-2.1 1.3-5.3v-6.9q0-3.3-1.3-5.4-1.3-2.1-5.6-2.1zm133 73.7v26.4q0 9.3-9.3 9.3h-29.8q-9.4 0-9.4-9.3v-53.5q0-6.3 2-14.3 1.9-8 6.1-19l17.7-45.8q2.6-8.1 12.1-8.1h54.6q9.3 0 11.9 7.9l17.6 46q4.3 11 6.2 19 1.9 8 1.9 14.3v53.5q0 9.3-9.3 9.3h-30.6q-9.9 0-9.9-9.3v-26.4zm-2 26.4v-28.4h35.8v28.4q0 7.3 7.9 7.3h30.6q7.3 0 7.3-7.3v-53.5q0-6.1-1.9-14-1.9-7.9-6-18.4l-17.6-46.1q-2.2-6.6-10.1-6.6h-54.5q-8.2 0-10.4 6.6l-17.6 46.1q-4.1 10.5-6 18.4-1.9 7.9-1.9 14v53.5q0 7.3 7.3 7.3h29.8q7.3 0 7.3-7.3zm60.2-54.1v43.1h-2.1v-34.8h-79v34.8h-2v-43.1q0-5.7 0.9-10.5 0.9-4.7 2.5-9.2l13-33.2q2.2-5.7 5-9.6 2.9-3.8 9.8-3.8h19.8q6.7 0 9.5 3.8 2.7 3.9 5.1 9.8l14 33q1.6 4.5 2.5 9.2 1 4.8 1 10.5zm-81.1 0v6.3h79v-6.3q0-5.5-0.8-10.2-0.8-4.6-2.4-8.7l-14-33q-2.2-5.3-4.7-8.8-2.4-3.6-8.1-3.6h-19.8q-6.1 0-8.5 3.5-2.5 3.4-4.5 8.7l-13 33.2q-1.4 4.1-2.3 8.7-0.9 4.7-0.9 10.2zm22.9-11.2l9.5-30.8q1.4-3.4 3.9-3.4h5q2.5 0 3.9 3.4l9.5 30.8zm11.6-30.2l-8.8 28.2h26.2l-8.7-28.2q-0.2-0.8-0.6-1.4-0.4-0.6-1.2-0.6h-5.1q-0.8 0-1.2 0.7-0.4 0.7-0.6 1.3zm131.7 104.8h-31.4q-9.3 0-9.3-9.3v-131.3q0-9.4 9.3-9.4h62q19.5 0 30.3 5.3 10.8 5.3 15.2 14.6 4.4 9.3 4.4 21.7v25.9q0 12.2-4.4 21.6-4.4 9.4-15.2 14.7-10.8 5.3-30.3 5.3h-21.3v31.6q0 9.3-9.3 9.3zm-31.4-2h31.4q7.3 0 7.3-7.3v-33.7h23.3q18.4 0 28.9-4.9 10.4-5 14.7-13.9 4.2-8.9 4.2-20.7v-25.9q0-11.8-4.2-20.7-4.3-8.9-14.7-13.9-10.5-4.9-28.9-4.9h-62q-7.3 0-7.3 7.3v131.3q0 7.3 7.3 7.3zm59.2-58.2h-41.8v39.9h-2v-109.4h43.8q12.7 0 19.3 3.6 6.6 3.7 8.8 9.9 2.3 6.2 2.3 14.1v15q0 7.9-2.3 13.9-2.2 6.1-8.8 9.6-6.6 3.4-19.3 3.4zm-41.8-2h41.8q11.9 0 18-3.2 6.1-3.1 8.2-8.8 2.1-5.6 2.1-12.9v-15q0-7.3-2.1-13.1-2.1-5.8-8.2-9.1-6.1-3.4-18-3.4h-41.8zm20.9-17.2v-30.6h18.2q5.9 0 7.7 2.9 1.9 3 1.9 7v10.8q0 3.8-1.9 6.9-1.8 3-7.7 3zm18.3-28.6h-16.2v26.6h16.2q4.6 0 6-2.5 1.5-2.4 1.5-5.4v-10.8q0-3-1.5-5.4-1.4-2.5-6-2.5zm164.7 108h-86.3q-9.3 0-9.3-9.3v-24.1q0-9.3 9.3-9.3h18v-64.1h-18q-9.3 0-9.3-9.3v-24.5q0-9.3 9.3-9.3h86.3q9.4 0 9.4 9.3v24.5q0 9.3-9.4 9.3h-17.6v64.1h17.6q9.4 0 9.4 9.3v24.1q0 9.3-9.4 9.3zm-86.3-2h86.3q7.3 0 7.3-7.3v-24.1q0-7.3-7.3-7.3h-19.6v-68.1h19.6q7.3 0 7.3-7.3v-24.5q0-7.3-7.3-7.3h-86.3q-7.3 0-7.3 7.3v24.5q0 7.3 7.3 7.3h20.1v68.1h-20.1q-7.3 0-7.3 7.3v24.1q0 7.3 7.3 7.3zm10.9-125.6v-2.1h64.5v2.1h-31v105.3h31v2.1h-64.5v-2.1h31.5v-105.3zm146.3 127.6h-31.4q-9.3 0-9.3-9.3v-131.3q0-9.3 9.3-9.3h90.4q9.3 0 9.3 9.3v24.1q0 9.3-9.3 9.3h-49.7v17.1h33.2q9.4 0 9.4 9.3v24.3q0 9.3-9.4 9.3h-33.2v37.9q0 9.3-9.3 9.3zm-31.4-2h31.4q7.3 0 7.3-7.3v-39.9h35.2q7.3 0 7.3-7.3v-24.3q0-7.3-7.3-7.3h-35.2v-21.1h51.7q7.3 0 7.3-7.3v-24.1q0-7.3-7.3-7.3h-90.4q-7.3 0-7.3 7.3v131.3q0 7.3 7.3 7.3zm16.8-18.2h-2v-109.5h64.6v2.1h-62.6v57.9h46.2v2.1h-46.2zm214.8-55.4l-30.4 41.2v25.1q0 9.3-9.3 9.3h-32.8q-5.1 0-7.2-2.2-2.2-2.2-2.2-7.1v-25.3l-30.6-41q-3.2-4.4-4.9-7.8-1.7-3.3-2.5-7.6-0.7-4.2-0.7-10.7v-38.9q0-9.4 9.4-9.4h31.2q9.3 0 9.3 9.4v33.2q0 1.8 0.2 3.7 0.2 1.8 1.2 3.8l9.5 14.6q1.3 2.4 3.1 2.4h2q1.8 0 3.2-2.4l9.4-14.6q1-2 1.2-3.8 0.2-1.9 0.2-3.7v-33.2q0-9.4 9.3-9.4h30.2q9.3 0 9.3 9.4v38.9q0 6.5-0.7 10.7-0.7 4.3-2.4 7.6-1.7 3.4-5 7.8zm-72.5 73.6h32.8q7.3 0 7.3-7.3v-25.7l30.8-41.8q3-4.2 4.8-7.5 1.7-3.2 2.3-7.2 0.6-3.9 0.6-10.2v-38.9q0-7.3-7.3-7.3h-30.2q-7.3 0-7.3 7.3v33.2q0 2-0.2 4.2-0.2 2.1-1.6 4.3l-9.3 14.6q-2.1 3.5-4.9 3.5h-2q-2.9 0-4.9-3.5l-9.3-14.6q-1.4-2.2-1.6-4.3-0.2-2.2-0.2-4.2v-33.2q0-7.3-7.3-7.3h-31.2q-7.3 0-7.3 7.3v38.9q0 6.3 0.6 10.2 0.6 4 2.3 7.2 1.7 3.3 4.8 7.5l31 41.6v25.9q0 7.3 7.3 7.3zm17.4-18.2h-2v-34.7h-2.1q-4.4 0-7.9-2-3.4-2.1-6.8-6.5l-19.7-27.4q-2.2-3-2.6-7.1-0.4-4-0.4-8.5v-23.3h2v23.3q0 4.3 0.4 8 0.4 3.8 2.4 6.8l19.7 27.4q2.8 4 6.2 5.6 3.3 1.7 6.7 1.7h5.5q3.9 0 7-1.8 3.2-1.7 6.2-5.5l20.3-27.4q2.2-2.8 2.5-6.7 0.3-3.8 0.3-8.1v-23.3h2v24.3q0 4.1-0.4 7.8-0.4 3.8-2.6 6.8l-20.3 27.4q-3.2 4.4-6.8 6.5-3.5 2-8.2 2h-1.4z"/>
			<path fill-rule="evenodd" class="s3" d="m142.6 168.8c-3.2-0.5-6.3-1.5-9.1-3-2.8-1.6-5.4-3.6-7.5-6-2.2-2.4-3.9-5.2-5.1-8.2-2.2-5.4-3.7-11-4.6-16.8-0.9-5.8-1.1-11.6-0.7-17.4 0.4-5.9 1.5-11.6 3.2-17.2 1.7-5.6 4-10.9 7-16q2.1 5.3 5.2 10.1 3.1 4.8 7.2 8.9 4 4 8.8 7.2 4.7 3.2 10 5.3c4.3 1.7 8.1 4.5 11 8 2.9 3.6 4.9 7.8 5.8 12.3 0.9 4.5 0.6 9.2-0.7 13.6-1.4 4.4-3.8 8.3-7.1 11.6 3.4 17.2-6.8 34.2-23.6 39.5-0.8 0.2-1.7 0.1-2.5-0.3-0.8-0.5-1.3-1.2-1.6-2-0.2-0.9-0.2-1.8 0.2-2.5 0.4-0.8 1.1-1.4 1.9-1.7 5.3-1.7 10-4.9 13.4-9.2 3.5-4.3 5.6-9.6 6-15.1 0.4-5.6-0.9-11.1-3.6-15.9-2.8-4.8-6.9-8.7-11.9-11.1q2.5 2.5 4.3 5.5 1.8 3 2.8 6.3 1 3.4 1.2 6.8 0.3 3.5-0.3 7c-3.2 0.6-6.5 0.7-9.7 0.3zm55.5-80.6c27.6 12.7 42 43.4 34.2 72.7l8.8 8.1-41.7 20.7 8.7-50.9 8.3 7.6c1.1-5.2 1.5-10.6 1.2-15.9-0.2-5.3-1.2-10.5-2.8-15.6-1.6-5.1-3.8-9.9-6.6-14.4-2.8-4.5-6.2-8.6-10.1-12.3zm-107.5 109.4c-27.6-12.7-42-43.4-34.2-72.7l-8.8-8.1 41.6-20.7-8.7 50.9-8.2-7.5c-1.1 5.2-1.5 10.5-1.2 15.8 0.2 5.3 1.2 10.5 2.7 15.6 1.6 5.1 3.9 9.9 6.7 14.4 2.8 4.5 6.2 8.6 10.1 12.3z"/>
			<path class="s1" d="m689.1 224h693.1v80.1h-693.1z"/>
			<path fill-rule="evenodd" class="s0" d="m719.6 235.7l-12.8 25.9v23.7h-4.4v-23.7l-12.9-25.9h4.8l10.2 20.6 10.3-20.6zm29.3 39.9q0 2.1-0.8 4.1-0.8 1.9-2.2 3.3-1.4 1.4-3.3 2.2-1.9 0.8-4.1 0.8h-2.8q-2.2 0-4.1-0.8-1.9-0.8-3.3-2.2-1.4-1.4-2.2-3.3-0.8-2-0.8-4.1v-16q0-2.1 0.8-4 0.8-1.9 2.2-3.4 1.4-1.4 3.3-2.2 1.9-0.8 4.1-0.8h2.8q2.2 0 4.1 0.8 1.9 0.8 3.3 2.2 1.4 1.5 2.2 3.4 0.8 1.9 0.8 4zm-4.2 0.3v-16.5q0-1.3-0.5-2.4-0.5-1.2-1.3-2-0.8-0.8-2-1.3-1.1-0.5-2.4-0.5h-2.8q-1.3 0-2.4 0.5-1.2 0.5-2 1.3-0.8 0.8-1.3 2-0.5 1.1-0.5 2.4v16.5q0 1.2 0.5 2.4 0.5 1.1 1.3 1.9 0.8 0.8 2 1.3 1.1 0.5 2.4 0.5h2.8q1.3 0 2.4-0.5 1.2-0.5 2-1.3 0.8-0.8 1.3-1.9 0.5-1.2 0.5-2.4zm36.5 9.4h-1.5l-2.3-3.5q-1.5 1.9-3.6 3.1-2.2 1.1-4.8 1.1h-1.1q-2.2 0-4.1-0.8-1.9-0.8-3.3-2.2-1.4-1.4-2.2-3.3-0.8-1.9-0.8-4.1v-25.7h4.2v26q0 1.2 0.5 2.4 0.5 1.1 1.3 1.9 0.9 0.8 2 1.3 1.1 0.5 2.4 0.5h2.8q1.3 0 2.4-0.5 1.2-0.5 2-1.3 0.8-0.8 1.3-1.9 0.5-1.2 0.5-2.4v-26h4.3zm23.2-31.4h-4.3q-1.3 0-2.4 0.4-1.1 0.5-2 1.4-0.8 0.8-1.3 1.9-0.5 1.1-0.5 2.4v25.3h-4.2v-35.5h1.4l2.3 3.6q1.4-2 3.7-3.1 2.1-1.2 4.8-1.2h2.5zm50.6 18.4v1.5q0 2.6-1 4.8-1 2.2-2.7 3.9-1.8 1.6-4 2.6-2.3 0.9-4.8 0.9h-3.6q-2.5 0-4.8-0.9-2.3-1-4-2.6-1.7-1.7-2.7-3.9-1-2.2-1-4.8v-1.9l4.4-0.8v2.7q0 1.7 0.7 3.1 0.7 1.5 1.8 2.6 1.2 1 2.7 1.7 1.5 0.6 3.1 0.6h3.2q1.6 0 3.1-0.6 1.5-0.7 2.6-1.7 1.2-1.1 1.9-2.6 0.6-1.4 0.6-3.1v-1.5q0-2.5-1-4.2-1-1.7-2.6-2.9-1.7-1.2-3.8-2-2.1-0.9-4.3-1.7-2.2-0.8-4.3-1.8-2.1-1-3.8-2.5-1.6-1.5-2.6-3.7-1-2.2-1-5.4v-0.9q0-2.6 0.9-4.8 1-2.2 2.6-3.9 1.7-1.6 3.9-2.6 2.2-0.9 4.8-0.9h3.2q2.5 0 4.7 0.9 2.2 1 3.9 2.6 1.7 1.7 2.6 3.9 1 2.2 1 4.8v1.2l-4.5 0.8v-2q0-1.7-0.6-3.1-0.7-1.5-1.7-2.5-1.1-1.1-2.5-1.8-1.5-0.6-3.1-0.6h-2.8q-1.7 0-3.1 0.6-1.4 0.7-2.5 1.8-1.1 1-1.8 2.5-0.6 1.4-0.6 3.1v0.9q0 2.4 1 4 1 1.7 2.7 2.8 1.7 1.2 3.7 2 2.1 0.9 4.4 1.8 2.2 0.8 4.3 1.9 2.1 1 3.7 2.6 1.7 1.5 2.7 3.7 1 2.3 1 5.4zm31.8 3.3q0 2.1-0.8 4.1-0.8 1.9-2.2 3.3-1.4 1.4-3.3 2.2-1.9 0.8-4.1 0.8h-2.8q-2.2 0-4.1-0.8-1.9-0.8-3.3-2.2-1.4-1.4-2.2-3.3-0.9-2-0.9-4.1v-16q0-2.1 0.9-4 0.8-1.9 2.2-3.4 1.4-1.4 3.3-2.2 1.9-0.8 4.1-0.8h2.8q2.2 0 4.1 0.8 1.9 0.8 3.3 2.2 1.4 1.5 2.2 3.4 0.8 1.9 0.8 4v1.4l-4.2 0.7v-2.3q0-1.3-0.5-2.4-0.5-1.2-1.3-2-0.9-0.8-2-1.3-1.1-0.5-2.4-0.5h-2.8q-1.3 0-2.4 0.5-1.1 0.5-2 1.3-0.8 0.8-1.3 2-0.5 1.1-0.5 2.4v16.4q0 1.3 0.5 2.5 0.5 1.1 1.3 1.9 0.9 0.8 2 1.3 1.1 0.5 2.4 0.5h2.8q1.3 0 2.4-0.5 1.1-0.5 2-1.3 0.8-0.8 1.3-1.9 0.5-1.2 0.5-2.5v-2.3l4.2 0.7zm23.2-21.7h-4.2q-1.3 0-2.4 0.5-1.1 0.5-2 1.3-0.8 0.8-1.3 2-0.5 1.1-0.5 2.4v25.2h-4.2v-35.5h1.4l2.3 3.7q1.5-2 3.7-3.2 2.2-1.1 4.8-1.1h2.4zm29.5 31.4h-1.5l-2.3-3.6q-1.5 1.9-3.7 3.1-2.2 1.2-4.7 1.2h-1.1q-2.2 0-4.1-0.9-1.9-0.8-3.3-2.2-1.4-1.4-2.2-3.3-0.8-1.9-0.8-4.1v-0.3q0-2.2 0.8-4.1 0.8-1.9 2.2-3.3 1.4-1.4 3.3-2.2 1.9-0.8 4.1-0.8h9v-5.5q0-1.3-0.5-2.4-0.5-1.1-1.3-2-0.8-0.8-2-1.3-1.1-0.5-2.4-0.5h-2.5q-1.3 0-2.4 0.5-1.1 0.5-1.9 1.3-0.9 0.9-1.4 2-0.4 1.1-0.4 2.4v1.3l-4.3-0.7v-0.4q0-2.1 0.8-4 0.8-1.9 2.2-3.3 1.5-1.5 3.4-2.3 1.9-0.8 4-0.8h2.5q2.2 0 4.1 0.8 1.9 0.8 3.3 2.3 1.4 1.4 2.2 3.3 0.9 1.9 0.9 4zm-4.3-9.4v-7.7h-9q-1.3 0-2.4 0.5-1.1 0.4-2 1.3-0.8 0.8-1.3 2-0.5 1.1-0.5 2.4v1.5q0 1.2 0.5 2.4 0.5 1.1 1.3 1.9 0.9 0.9 2 1.3 1.1 0.5 2.4 0.5h2.8q1.3 0 2.4-0.5 1.2-0.4 2-1.3 0.8-0.8 1.3-1.9 0.5-1.2 0.5-2.4zm36.5-0.3q0 2.2-0.9 4.1-0.8 1.9-2.2 3.3-1.4 1.4-3.3 2.2-1.9 0.9-4.1 0.9h-1q-2.4 0-4.5-1-2-1-3.5-2.7v17.2h-4.2v-49.7h1.4l2.3 3.6q1.5-2 3.7-3.1 2.2-1.2 4.8-1.2h1q2.2 0 4.1 0.8 1.9 0.8 3.3 2.3 1.4 1.4 2.2 3.3 0.9 1.9 0.9 4.1zm-4.3 0.2v-16.5q0-1.3-0.5-2.4-0.5-1.1-1.3-2-0.8-0.8-2-1.3-1.1-0.5-2.4-0.5h-2.8q-1.3 0-2.4 0.5-1.1 0.5-2 1.3-0.8 0.9-1.3 2-0.5 1.1-0.5 2.4v16.5q0 1.3 0.5 2.4 0.5 1.1 1.3 2 0.9 0.8 2 1.3 1.1 0.5 2.4 0.5h2.8q1.3 0 2.4-0.5 1.2-0.5 2-1.3 0.8-0.9 1.3-2 0.5-1.1 0.5-2.4zm18.8 4.1l-3.6 15.3h-1.7v-15.3zm54.1-6.1q0 2.5-0.9 4.7-1 2.2-2.6 3.9-1.7 1.6-3.9 2.6-2.2 0.9-4.8 0.9h-3.5q-2.5 0-4.8-0.9-2.2-1-3.9-2.6-1.6-1.7-2.6-3.9-0.9-2.2-0.9-4.7v-26.7q0-2.5 0.9-4.7 1-2.3 2.6-3.9 1.7-1.7 3.9-2.7 2.3-0.9 4.8-0.9h3.5q2.6 0 4.8 0.9 2.2 1 3.9 2.7 1.6 1.6 2.6 3.9 0.9 2.2 0.9 4.7zm-4.4 0v-26.7q0-1.6-0.7-3.1-0.6-1.4-1.7-2.5-1-1.1-2.5-1.7-1.4-0.6-3.1-0.6h-3.1q-1.7 0-3.1 0.6-1.4 0.6-2.5 1.7-1.1 1.1-1.7 2.5-0.7 1.5-0.7 3.1v26.7q0 1.7 0.7 3.1 0.6 1.4 1.7 2.5 1.1 1.1 2.5 1.7 1.4 0.7 3.1 0.7h3.1q1.7 0 3.1-0.7 1.5-0.6 2.5-1.7 1.1-1.1 1.7-2.5 0.7-1.4 0.7-3.1zm37.4 11.5h-1.5l-2.3-3.6q-1.5 2-3.7 3.1-2.1 1.2-4.7 1.2h-1.1q-2.2 0-4.1-0.8-1.9-0.8-3.3-2.3-1.4-1.4-2.2-3.3-0.8-1.9-0.8-4v-25.8h4.2v26q0 1.3 0.5 2.4 0.5 1.1 1.3 2 0.9 0.8 2 1.3 1.1 0.5 2.4 0.5h2.8q1.3 0 2.4-0.5 1.2-0.5 2-1.3 0.8-0.9 1.3-2 0.5-1.1 0.5-2.4v-26h4.3zm23.2-31.4h-4.3q-1.3 0-2.4 0.5-1.1 0.5-2 1.3-0.8 0.8-1.3 2-0.5 1.1-0.5 2.4v25.2h-4.2v-35.4h1.4l2.3 3.6q1.5-2 3.7-3.2 2.2-1.1 4.8-1.1h2.5zm50.6 18.4v1.5q0 2.5-1 4.7-1 2.2-2.8 3.9-1.7 1.7-3.9 2.6-2.3 1-4.8 1h-3.6q-2.5 0-4.8-1-2.3-0.9-4-2.6-1.7-1.7-2.7-3.9-1-2.2-1-4.7v-2l4.4-0.7v2.7q0 1.6 0.7 3.1 0.7 1.4 1.8 2.5 1.2 1.1 2.7 1.7 1.5 0.7 3.1 0.7h3.2q1.6 0 3.1-0.7 1.5-0.6 2.6-1.7 1.2-1.1 1.9-2.5 0.6-1.5 0.6-3.1v-1.5q0-2.6-1-4.3-1-1.7-2.6-2.8-1.7-1.2-3.8-2.1-2.1-0.8-4.3-1.6-2.2-0.9-4.3-1.9-2.1-1-3.8-2.5-1.6-1.5-2.6-3.7-1-2.2-1-5.4v-0.9q0-2.5 0.9-4.7 1-2.3 2.6-3.9 1.7-1.7 3.9-2.6 2.3-1 4.8-1h3.2q2.5 0 4.7 1 2.2 0.9 3.9 2.6 1.6 1.6 2.6 3.9 1 2.2 1 4.7v1.3l-4.5 0.7v-2q0-1.6-0.6-3.1-0.7-1.4-1.7-2.5-1.1-1.1-2.5-1.7-1.5-0.6-3.1-0.6h-2.8q-1.7 0-3.1 0.6-1.4 0.6-2.5 1.7-1.1 1.1-1.8 2.5-0.6 1.5-0.6 3.1v0.9q0 2.4 1 4.1 1 1.6 2.7 2.8 1.7 1.1 3.7 2l4.4 1.7q2.2 0.9 4.3 1.9 2.1 1.1 3.7 2.6 1.7 1.6 2.7 3.8 1 2.2 1 5.4zm31.9 3.2q0 2.2-0.9 4.1-0.8 1.9-2.2 3.3-1.4 1.4-3.3 2.3-1.9 0.8-4.1 0.8h-2.8q-2.1 0-4.1-0.8-1.9-0.9-3.3-2.3-1.4-1.4-2.2-3.3-0.8-1.9-0.8-4.1v-15.9q0-2.2 0.8-4.1 0.8-1.9 2.2-3.3 1.4-1.5 3.3-2.3 2-0.8 4.1-0.8h2.8q2.2 0 4.1 0.8 1.9 0.8 3.3 2.3 1.4 1.4 2.2 3.3 0.9 1.9 0.9 4.1zm-4.3 0.2v-16.5q0-1.3-0.5-2.4-0.5-1.1-1.3-2-0.8-0.8-1.9-1.3-1.2-0.5-2.5-0.5h-2.8q-1.3 0-2.4 0.5-1.1 0.5-2 1.3-0.8 0.9-1.3 2-0.5 1.1-0.5 2.4v16.5q0 1.3 0.5 2.4 0.5 1.1 1.3 2 0.9 0.8 2 1.3 1.1 0.5 2.4 0.5h2.8q1.3 0 2.5-0.5 1.1-0.5 1.9-1.3 0.8-0.9 1.3-2 0.5-1.1 0.5-2.4zm18.5 9.5h-4.3v-49.7h4.3zm33.6 0h-1.4l-2.4-3.6q-1.4 2-3.6 3.2-2.2 1.1-4.8 1.1h-1.1q-2.1 0-4-0.8-1.9-0.8-3.3-2.2-1.5-1.4-2.3-3.3-0.8-1.9-0.8-4.1v-25.7h4.3v25.9q0 1.3 0.5 2.5 0.4 1.1 1.3 1.9 0.8 0.8 1.9 1.3 1.2 0.5 2.4 0.5h2.9q1.3 0 2.4-0.5 1.1-0.5 1.9-1.3 0.9-0.8 1.4-1.9 0.5-1.2 0.5-2.5v-25.9h4.2zm25.3 0h-3.8q-2 0-3.7-0.8-1.7-0.7-3-2-1.3-1.2-2-2.9-0.8-1.7-0.8-3.7v-22h-6.3v-4.1h6.3v-8.5l4.3-0.7v9.2h9v4.1h-9v22.2q0 1.1 0.4 2 0.4 0.9 1.1 1.6 0.7 0.7 1.6 1.1 1 0.4 2.1 0.4h3.8zm13.9-44h-5v-5.6h5zm-0.3 43.9h-4.3v-35.4h4.3zm33.6-9.8q0 2.2-0.8 4.1-0.9 1.9-2.3 3.3-1.4 1.4-3.3 2.2-1.9 0.9-4.1 0.9h-2.8q-2.2 0-4.1-0.9-1.9-0.8-3.3-2.2-1.4-1.4-2.2-3.3-0.8-1.9-0.8-4.1v-15.9q0-2.2 0.8-4.1 0.8-1.9 2.2-3.3 1.4-1.5 3.3-2.3 1.9-0.8 4.1-0.8h2.8q2.2 0 4.1 0.8 1.9 0.8 3.3 2.3 1.4 1.4 2.3 3.3 0.8 1.9 0.8 4.1zm-4.3 0.2v-16.5q0-1.3-0.5-2.4-0.5-1.1-1.3-2-0.8-0.8-2-1.3-1.1-0.5-2.4-0.5h-2.8q-1.3 0-2.4 0.5-1.1 0.5-2 1.3-0.8 0.9-1.3 2-0.5 1.1-0.5 2.4v16.5q0 1.3 0.5 2.4 0.5 1.1 1.3 2 0.9 0.8 2 1.3 1.1 0.5 2.4 0.5h2.8q1.3 0 2.4-0.5 1.2-0.5 2-1.3 0.8-0.9 1.3-2 0.5-1.1 0.5-2.4zm36.5 9.5h-4.3v-26q0-1.3-0.5-2.4-0.5-1.1-1.3-2-0.8-0.8-1.9-1.3-1.2-0.5-2.5-0.5h-2.8q-1.3 0-2.4 0.5-1.1 0.5-2 1.3-0.8 0.9-1.3 2-0.4 1.1-0.4 2.4v26h-4.3v-35.5h1.4l2.3 3.6q1.5-1.9 3.7-3.1 2.2-1.2 4.8-1.2h1q2.2 0 4.1 0.8 1.9 0.8 3.3 2.3 1.4 1.4 2.3 3.3 0.8 1.9 0.8 4.1zm14.5 0h-5.3v-5.4h5.3z"/>
			<path class="s4" d="m308.2 267.5h377.1"/>
		</g>
		<g id="inner-wrapper copy">
			<path class="s0" d="m145.5 11.9c-35 0-68.5 13.8-93.2 38.5-24.7 24.7-38.6 58.3-38.6 93.2 0 34.9 13.9 68.5 38.6 93.2 24.7 24.7 58.2 38.6 93.2 38.6 34.9 0 68.4-13.9 93.1-38.6 24.7-24.7 38.6-58.3 38.6-93.2 0-34.9-13.9-68.5-38.6-93.2-24.7-24.7-58.2-38.5-93.1-38.5z"/>
			<path class="s1" d="m292.2 31.2h1165.4v229h-1165.4z"/>
			<path fill-rule="evenodd" class="s2" d="m374.5 212h-64.1q-9.3 0-9.3-9.4v-23.7q0-9.3 9.3-9.3h54.5q1.7 0 2.5-1.2 0.8-1.2 0.8-2.6 0-4.7-3.5-4.9l-30.4-4.3q-10.1-1.6-17.6-5.3-7.5-3.8-11.6-11.1-4-7.3-4-19.2v-21.3q0-18.3 11.5-28 11.6-9.7 32.5-9.7h56.7q9.3 0 9.3 9.3v24.1q0 9.4-9.3 9.4h-47.2q-1.6 0-2.5 1.2-1 1.2-1 2.8 0 4.1 3.7 4.5l30.2 4q10.1 1.4 17.6 5.3 7.5 3.8 11.7 11.1 4.1 7.3 4.1 19.3v21.3q0 18.2-11.6 27.9-11.7 9.8-32.3 9.8zm-64.1-2.1h64.1q19.6 0 30.8-9.2 11.1-9.2 11.1-26.4v-21.3q0-11.4-3.9-18.3-4-6.8-11.1-10.4-7.1-3.5-16.6-5l-30.2-4q-5.5-0.6-5.5-6.5 0-6.1 5.5-6.1h47.2q7.3 0 7.3-7.3v-24.1q0-7.3-7.3-7.3h-56.7q-19.7 0-30.8 9.1-11.2 9.2-11.2 26.6v21.3q0 17 8.6 24.2 8.6 7.2 22.8 9.4l30.4 4.3q2.7 0.2 4 1.8 1.3 1.6 1.3 5.1 0 2.4-1.3 4.1-1.3 1.7-4 1.7h-54.5q-7.3 0-7.3 7.3v23.7q0 7.3 7.3 7.3zm80.5-127.6v2h-45q-8.5 0-13.6 4.6-5.1 4.7-5.1 11.8v16.6q0 7.1 2.9 9.8 2.8 2.8 7.5 3.8l42.7 8.7q6.1 1.2 10.1 5.2 3.9 3.9 3.9 14.7v11.7q0 8.9-6.1 14.7-6 5.8-16.4 5.8h-50.4v-2h50.4q9.5 0 15-5.2 5.5-5.2 5.5-13.3v-11.7q0-9.6-3.4-13.1-3.3-3.5-9-4.8l-42.7-8.7q-5.3-1-8.6-4.1-3.4-3.2-3.4-11.5v-16.6q0-8.1 5.7-13.3 5.7-5.1 15-5.1zm144.7 129.7h-49.5q-26.7 0-39.3-10.7-12.5-10.6-12.5-32.7v-63q0-22.3 12.5-33 12.6-10.6 39.3-10.6h49.5q9.3 0 9.3 9.3v24.5q0 9.4-9.3 9.4h-40.8q-10.3 0-10.3 8.1v48.2q0 4.3 2.6 6 2.7 1.7 7.7 1.7h40.8q9.3 0 9.3 9.3v24.1q0 9.4-9.3 9.4zm-49.5-2.1h49.5q7.3 0 7.3-7.3v-24.1q0-7.3-7.3-7.3h-40.8q-12.3 0-12.3-9.7v-48.2q0-10.2 12.3-10.2h40.8q7.3 0 7.3-7.3v-24.5q0-7.3-7.3-7.3h-49.5q-25.5 0-37.7 10.1-12.1 10.2-12.1 31.5v63q0 21.1 12.1 31.2 12.2 10.1 37.7 10.1zm38.3-20.2v2h-33.8q-13.2 0-20.2-2.6-7-2.7-9.6-8.4-2.6-5.8-2.6-15.1v-56.8q0-9.7 2.7-15.5 2.7-5.8 9.7-8.4 7-2.6 20-2.6h33.8v2h-33.8q-12 0-18.6 2.3-6.5 2.3-9.2 7.7-2.6 5.4-2.6 14.5v56.8q0 8.7 2.5 14 2.6 5.4 9.1 7.7 6.6 2.4 18.8 2.4zm79.8 22.3h-31.2q-9.3 0-9.3-9.4v-131.3q0-9.3 9.3-9.3h67.5q16.2 0 25.4 4.5 9.1 4.6 12.8 12.7 3.8 8.1 3.8 18.7v9.3q0 7.5-1.8 13.1-1.9 5.5-6.1 9 9.7 2.6 15.4 10.4 5.6 7.8 5.6 20v42.9q0 9.4-9.3 9.4h-31.4q-9.3 0-9.3-9.4v-31q0-3.4-1.2-5-1.2-1.7-4.5-1.7h-26.3v37.7q0 9.4-9.4 9.4zm-31.2-2.1h31.2q7.3 0 7.3-7.3v-39.7h28.4q4.3 0 6 2 1.7 2.1 1.7 6.7v31q0 7.3 7.3 7.3h31.4q7.3 0 7.3-7.3v-42.9q0-12.8-6.7-20.5-6.7-7.7-17.8-8.9 6.5-2.9 8.9-8.7 2.4-5.9 2.4-14.4v-9.3q0-10.2-3.6-17.8-3.6-7.6-12.4-11.8-8.7-4.3-23.9-4.3h-67.5q-7.3 0-7.3 7.3v131.3q0 7.3 7.3 7.3zm98.5-18.2h-2v-27.2q0-19.8-22.5-19.8h-57.3v47h-2.1v-109.4h46.2q12 0 17.6 6.4 5.5 6.5 5.5 16.7v13.9q0 9.2-2.4 15.2-2.4 6.1-9.7 8.4h2.2q24.5 0 24.5 21.6zm-81.8-107.4v58.6h44.1q12.6 0 16.9-6.1 4.2-6.1 4.2-17.2v-14.2q0-9.5-5.2-15.3-5.1-5.8-15.9-5.8zm21.9 42.2v-26h15.2q5.3 0 7.1 2.8 1.8 2.7 1.8 6.8v6.9q0 4-1.8 6.7-1.8 2.8-7.1 2.8zm15.2-23.9h-13.2v21.9h13.2q4.3 0 5.6-2.2 1.3-2.1 1.3-5.3v-6.9q0-3.3-1.3-5.4-1.3-2.1-5.6-2.1zm133 73.7v26.4q0 9.3-9.3 9.3h-29.8q-9.4 0-9.4-9.3v-53.5q0-6.3 2-14.3 1.9-8 6.1-19l17.7-45.8q2.6-8.1 12.1-8.1h54.6q9.3 0 11.9 7.9l17.6 46q4.3 11 6.2 19 1.9 8 1.9 14.3v53.5q0 9.3-9.3 9.3h-30.6q-9.9 0-9.9-9.3v-26.4zm-2 26.4v-28.4h35.8v28.4q0 7.3 7.9 7.3h30.6q7.3 0 7.3-7.3v-53.5q0-6.1-1.9-14-1.9-7.9-6-18.4l-17.6-46.1q-2.2-6.6-10.1-6.6h-54.5q-8.2 0-10.4 6.6l-17.6 46.1q-4.1 10.5-6 18.4-1.9 7.9-1.9 14v53.5q0 7.3 7.3 7.3h29.8q7.3 0 7.3-7.3zm60.2-54.1v43.1h-2.1v-34.8h-79v34.8h-2v-43.1q0-5.7 0.9-10.5 0.9-4.7 2.5-9.2l13-33.2q2.2-5.7 5-9.6 2.9-3.8 9.8-3.8h19.8q6.7 0 9.5 3.8 2.7 3.9 5.1 9.8l14 33q1.6 4.5 2.5 9.2 1 4.8 1 10.5zm-81.1 0v6.3h79v-6.3q0-5.5-0.8-10.2-0.8-4.6-2.4-8.7l-14-33q-2.2-5.3-4.7-8.8-2.4-3.6-8.1-3.6h-19.8q-6.1 0-8.5 3.5-2.5 3.4-4.5 8.7l-13 33.2q-1.4 4.1-2.3 8.7-0.9 4.7-0.9 10.2zm22.9-11.2l9.5-30.8q1.4-3.4 3.9-3.4h5q2.5 0 3.9 3.4l9.5 30.8zm11.6-30.2l-8.8 28.2h26.2l-8.7-28.2q-0.2-0.8-0.6-1.4-0.4-0.6-1.2-0.6h-5.1q-0.8 0-1.2 0.7-0.4 0.7-0.6 1.3zm131.7 104.8h-31.4q-9.3 0-9.3-9.3v-131.3q0-9.4 9.3-9.4h62q19.5 0 30.3 5.3 10.8 5.3 15.2 14.6 4.4 9.3 4.4 21.7v25.9q0 12.2-4.4 21.6-4.4 9.4-15.2 14.7-10.8 5.3-30.3 5.3h-21.3v31.6q0 9.3-9.3 9.3zm-31.4-2h31.4q7.3 0 7.3-7.3v-33.7h23.3q18.4 0 28.9-4.9 10.4-5 14.7-13.9 4.2-8.9 4.2-20.7v-25.9q0-11.8-4.2-20.7-4.3-8.9-14.7-13.9-10.5-4.9-28.9-4.9h-62q-7.3 0-7.3 7.3v131.3q0 7.3 7.3 7.3zm59.2-58.2h-41.8v39.9h-2v-109.4h43.8q12.7 0 19.3 3.6 6.6 3.7 8.8 9.9 2.3 6.2 2.3 14.1v15q0 7.9-2.3 13.9-2.2 6.1-8.8 9.6-6.6 3.4-19.3 3.4zm-41.8-2h41.8q11.9 0 18-3.2 6.1-3.1 8.2-8.8 2.1-5.6 2.1-12.9v-15q0-7.3-2.1-13.1-2.1-5.8-8.2-9.1-6.1-3.4-18-3.4h-41.8zm20.9-17.2v-30.6h18.2q5.9 0 7.7 2.9 1.9 3 1.9 7v10.8q0 3.8-1.9 6.9-1.8 3-7.7 3zm18.3-28.6h-16.2v26.6h16.2q4.6 0 6-2.5 1.5-2.4 1.5-5.4v-10.8q0-3-1.5-5.4-1.4-2.5-6-2.5zm164.7 108h-86.3q-9.3 0-9.3-9.3v-24.1q0-9.3 9.3-9.3h18v-64.1h-18q-9.3 0-9.3-9.3v-24.5q0-9.3 9.3-9.3h86.3q9.4 0 9.4 9.3v24.5q0 9.3-9.4 9.3h-17.6v64.1h17.6q9.4 0 9.4 9.3v24.1q0 9.3-9.4 9.3zm-86.3-2h86.3q7.3 0 7.3-7.3v-24.1q0-7.3-7.3-7.3h-19.6v-68.1h19.6q7.3 0 7.3-7.3v-24.5q0-7.3-7.3-7.3h-86.3q-7.3 0-7.3 7.3v24.5q0 7.3 7.3 7.3h20.1v68.1h-20.1q-7.3 0-7.3 7.3v24.1q0 7.3 7.3 7.3zm10.9-125.6v-2.1h64.5v2.1h-31v105.3h31v2.1h-64.5v-2.1h31.5v-105.3zm146.3 127.6h-31.4q-9.3 0-9.3-9.3v-131.3q0-9.3 9.3-9.3h90.4q9.3 0 9.3 9.3v24.1q0 9.3-9.3 9.3h-49.7v17.1h33.2q9.4 0 9.4 9.3v24.3q0 9.3-9.4 9.3h-33.2v37.9q0 9.3-9.3 9.3zm-31.4-2h31.4q7.3 0 7.3-7.3v-39.9h35.2q7.3 0 7.3-7.3v-24.3q0-7.3-7.3-7.3h-35.2v-21.1h51.7q7.3 0 7.3-7.3v-24.1q0-7.3-7.3-7.3h-90.4q-7.3 0-7.3 7.3v131.3q0 7.3 7.3 7.3zm16.8-18.2h-2v-109.5h64.6v2.1h-62.6v57.9h46.2v2.1h-46.2zm214.8-55.4l-30.4 41.2v25.1q0 9.3-9.3 9.3h-32.8q-5.1 0-7.2-2.2-2.2-2.2-2.2-7.1v-25.3l-30.6-41q-3.2-4.4-4.9-7.8-1.7-3.3-2.5-7.6-0.7-4.2-0.7-10.7v-38.9q0-9.4 9.4-9.4h31.2q9.3 0 9.3 9.4v33.2q0 1.8 0.2 3.7 0.2 1.8 1.2 3.8l9.5 14.6q1.3 2.4 3.1 2.4h2q1.8 0 3.2-2.4l9.4-14.6q1-2 1.2-3.8 0.2-1.9 0.2-3.7v-33.2q0-9.4 9.3-9.4h30.2q9.3 0 9.3 9.4v38.9q0 6.5-0.7 10.7-0.7 4.3-2.4 7.6-1.7 3.4-5 7.8zm-72.5 73.6h32.8q7.3 0 7.3-7.3v-25.7l30.8-41.8q3-4.2 4.8-7.5 1.7-3.2 2.3-7.2 0.6-3.9 0.6-10.2v-38.9q0-7.3-7.3-7.3h-30.2q-7.3 0-7.3 7.3v33.2q0 2-0.2 4.2-0.2 2.1-1.6 4.3l-9.3 14.6q-2.1 3.5-4.9 3.5h-2q-2.9 0-4.9-3.5l-9.3-14.6q-1.4-2.2-1.6-4.3-0.2-2.2-0.2-4.2v-33.2q0-7.3-7.3-7.3h-31.2q-7.3 0-7.3 7.3v38.9q0 6.3 0.6 10.2 0.6 4 2.3 7.2 1.7 3.3 4.8 7.5l31 41.6v25.9q0 7.3 7.3 7.3zm17.4-18.2h-2v-34.7h-2.1q-4.4 0-7.9-2-3.4-2.1-6.8-6.5l-19.7-27.4q-2.2-3-2.6-7.1-0.4-4-0.4-8.5v-23.3h2v23.3q0 4.3 0.4 8 0.4 3.8 2.4 6.8l19.7 27.4q2.8 4 6.2 5.6 3.3 1.7 6.7 1.7h5.5q3.9 0 7-1.8 3.2-1.7 6.2-5.5l20.3-27.4q2.2-2.8 2.5-6.7 0.3-3.8 0.3-8.1v-23.3h2v24.3q0 4.1-0.4 7.8-0.4 3.8-2.6 6.8l-20.3 27.4q-3.2 4.4-6.8 6.5-3.5 2-8.2 2h-1.4z"/>
			<path fill-rule="evenodd" class="s3" d="m142.6 168.8c-3.2-0.5-6.3-1.5-9.1-3-2.8-1.6-5.4-3.6-7.5-6-2.2-2.4-3.9-5.2-5.1-8.2-2.2-5.4-3.7-11-4.6-16.8-0.9-5.8-1.1-11.6-0.7-17.4 0.4-5.9 1.5-11.6 3.2-17.2 1.7-5.6 4-10.9 7-16q2.1 5.3 5.2 10.1 3.1 4.8 7.2 8.9 4 4 8.8 7.2 4.7 3.2 10 5.3c4.3 1.7 8.1 4.5 11 8 2.9 3.6 4.9 7.8 5.8 12.3 0.9 4.5 0.6 9.2-0.7 13.6-1.4 4.4-3.8 8.3-7.1 11.6 3.4 17.2-6.8 34.2-23.6 39.5-0.8 0.2-1.7 0.1-2.5-0.3-0.8-0.5-1.3-1.2-1.6-2-0.2-0.9-0.2-1.8 0.2-2.5 0.4-0.8 1.1-1.4 1.9-1.7 5.3-1.7 10-4.9 13.4-9.2 3.5-4.3 5.6-9.6 6-15.1 0.4-5.6-0.9-11.1-3.6-15.9-2.8-4.8-6.9-8.7-11.9-11.1q2.5 2.5 4.3 5.5 1.8 3 2.8 6.3 1 3.4 1.2 6.8 0.3 3.5-0.3 7c-3.2 0.6-6.5 0.7-9.7 0.3zm55.5-80.6c27.6 12.7 42 43.4 34.2 72.7l8.8 8.1-41.7 20.7 8.7-50.9 8.3 7.6c1.1-5.2 1.5-10.6 1.2-15.9-0.2-5.3-1.2-10.5-2.8-15.6-1.6-5.1-3.8-9.9-6.6-14.4-2.8-4.5-6.2-8.6-10.1-12.3zm-107.5 109.4c-27.6-12.7-42-43.4-34.2-72.7l-8.8-8.1 41.6-20.7-8.7 50.9-8.2-7.5c-1.1 5.2-1.5 10.5-1.2 15.8 0.2 5.3 1.2 10.5 2.7 15.6 1.6 5.1 3.9 9.9 6.7 14.4 2.8 4.5 6.2 8.6 10.1 12.3z"/>
			<path class="s1" d="m689.1 224h693.1v80.1h-693.1z"/>
			<path fill-rule="evenodd" class="s0" d="m719.6 235.7l-12.8 25.9v23.7h-4.4v-23.7l-12.9-25.9h4.8l10.2 20.6 10.3-20.6zm29.3 39.9q0 2.1-0.8 4.1-0.8 1.9-2.2 3.3-1.4 1.4-3.3 2.2-1.9 0.8-4.1 0.8h-2.8q-2.2 0-4.1-0.8-1.9-0.8-3.3-2.2-1.4-1.4-2.2-3.3-0.8-2-0.8-4.1v-16q0-2.1 0.8-4 0.8-1.9 2.2-3.4 1.4-1.4 3.3-2.2 1.9-0.8 4.1-0.8h2.8q2.2 0 4.1 0.8 1.9 0.8 3.3 2.2 1.4 1.5 2.2 3.4 0.8 1.9 0.8 4zm-4.2 0.3v-16.5q0-1.3-0.5-2.4-0.5-1.2-1.3-2-0.8-0.8-2-1.3-1.1-0.5-2.4-0.5h-2.8q-1.3 0-2.4 0.5-1.2 0.5-2 1.3-0.8 0.8-1.3 2-0.5 1.1-0.5 2.4v16.5q0 1.2 0.5 2.4 0.5 1.1 1.3 1.9 0.8 0.8 2 1.3 1.1 0.5 2.4 0.5h2.8q1.3 0 2.4-0.5 1.2-0.5 2-1.3 0.8-0.8 1.3-1.9 0.5-1.2 0.5-2.4zm36.5 9.4h-1.5l-2.3-3.5q-1.5 1.9-3.6 3.1-2.2 1.1-4.8 1.1h-1.1q-2.2 0-4.1-0.8-1.9-0.8-3.3-2.2-1.4-1.4-2.2-3.3-0.8-1.9-0.8-4.1v-25.7h4.2v26q0 1.2 0.5 2.4 0.5 1.1 1.3 1.9 0.9 0.8 2 1.3 1.1 0.5 2.4 0.5h2.8q1.3 0 2.4-0.5 1.2-0.5 2-1.3 0.8-0.8 1.3-1.9 0.5-1.2 0.5-2.4v-26h4.3zm23.2-31.4h-4.3q-1.3 0-2.4 0.4-1.1 0.5-2 1.4-0.8 0.8-1.3 1.9-0.5 1.1-0.5 2.4v25.3h-4.2v-35.5h1.4l2.3 3.6q1.4-2 3.7-3.1 2.1-1.2 4.8-1.2h2.5zm50.6 18.4v1.5q0 2.6-1 4.8-1 2.2-2.7 3.9-1.8 1.6-4 2.6-2.3 0.9-4.8 0.9h-3.6q-2.5 0-4.8-0.9-2.3-1-4-2.6-1.7-1.7-2.7-3.9-1-2.2-1-4.8v-1.9l4.4-0.8v2.7q0 1.7 0.7 3.1 0.7 1.5 1.8 2.6 1.2 1 2.7 1.7 1.5 0.6 3.1 0.6h3.2q1.6 0 3.1-0.6 1.5-0.7 2.6-1.7 1.2-1.1 1.9-2.6 0.6-1.4 0.6-3.1v-1.5q0-2.5-1-4.2-1-1.7-2.6-2.9-1.7-1.2-3.8-2-2.1-0.9-4.3-1.7-2.2-0.8-4.3-1.8-2.1-1-3.8-2.5-1.6-1.5-2.6-3.7-1-2.2-1-5.4v-0.9q0-2.6 0.9-4.8 1-2.2 2.6-3.9 1.7-1.6 3.9-2.6 2.2-0.9 4.8-0.9h3.2q2.5 0 4.7 0.9 2.2 1 3.9 2.6 1.7 1.7 2.6 3.9 1 2.2 1 4.8v1.2l-4.5 0.8v-2q0-1.7-0.6-3.1-0.7-1.5-1.7-2.5-1.1-1.1-2.5-1.8-1.5-0.6-3.1-0.6h-2.8q-1.7 0-3.1 0.6-1.4 0.7-2.5 1.8-1.1 1-1.8 2.5-0.6 1.4-0.6 3.1v0.9q0 2.4 1 4 1 1.7 2.7 2.8 1.7 1.2 3.7 2 2.1 0.9 4.4 1.8 2.2 0.8 4.3 1.9 2.1 1 3.7 2.6 1.7 1.5 2.7 3.7 1 2.3 1 5.4zm31.8 3.3q0 2.1-0.8 4.1-0.8 1.9-2.2 3.3-1.4 1.4-3.3 2.2-1.9 0.8-4.1 0.8h-2.8q-2.2 0-4.1-0.8-1.9-0.8-3.3-2.2-1.4-1.4-2.2-3.3-0.9-2-0.9-4.1v-16q0-2.1 0.9-4 0.8-1.9 2.2-3.4 1.4-1.4 3.3-2.2 1.9-0.8 4.1-0.8h2.8q2.2 0 4.1 0.8 1.9 0.8 3.3 2.2 1.4 1.5 2.2 3.4 0.8 1.9 0.8 4v1.4l-4.2 0.7v-2.3q0-1.3-0.5-2.4-0.5-1.2-1.3-2-0.9-0.8-2-1.3-1.1-0.5-2.4-0.5h-2.8q-1.3 0-2.4 0.5-1.1 0.5-2 1.3-0.8 0.8-1.3 2-0.5 1.1-0.5 2.4v16.4q0 1.3 0.5 2.5 0.5 1.1 1.3 1.9 0.9 0.8 2 1.3 1.1 0.5 2.4 0.5h2.8q1.3 0 2.4-0.5 1.1-0.5 2-1.3 0.8-0.8 1.3-1.9 0.5-1.2 0.5-2.5v-2.3l4.2 0.7zm23.2-21.7h-4.2q-1.3 0-2.4 0.5-1.1 0.5-2 1.3-0.8 0.8-1.3 2-0.5 1.1-0.5 2.4v25.2h-4.2v-35.5h1.4l2.3 3.7q1.5-2 3.7-3.2 2.2-1.1 4.8-1.1h2.4zm29.5 31.4h-1.5l-2.3-3.6q-1.5 1.9-3.7 3.1-2.2 1.2-4.7 1.2h-1.1q-2.2 0-4.1-0.9-1.9-0.8-3.3-2.2-1.4-1.4-2.2-3.3-0.8-1.9-0.8-4.1v-0.3q0-2.2 0.8-4.1 0.8-1.9 2.2-3.3 1.4-1.4 3.3-2.2 1.9-0.8 4.1-0.8h9v-5.5q0-1.3-0.5-2.4-0.5-1.1-1.3-2-0.8-0.8-2-1.3-1.1-0.5-2.4-0.5h-2.5q-1.3 0-2.4 0.5-1.1 0.5-1.9 1.3-0.9 0.9-1.4 2-0.4 1.1-0.4 2.4v1.3l-4.3-0.7v-0.4q0-2.1 0.8-4 0.8-1.9 2.2-3.3 1.5-1.5 3.4-2.3 1.9-0.8 4-0.8h2.5q2.2 0 4.1 0.8 1.9 0.8 3.3 2.3 1.4 1.4 2.2 3.3 0.9 1.9 0.9 4zm-4.3-9.4v-7.7h-9q-1.3 0-2.4 0.5-1.1 0.4-2 1.3-0.8 0.8-1.3 2-0.5 1.1-0.5 2.4v1.5q0 1.2 0.5 2.4 0.5 1.1 1.3 1.9 0.9 0.9 2 1.3 1.1 0.5 2.4 0.5h2.8q1.3 0 2.4-0.5 1.2-0.4 2-1.3 0.8-0.8 1.3-1.9 0.5-1.2 0.5-2.4zm36.5-0.3q0 2.2-0.9 4.1-0.8 1.9-2.2 3.3-1.4 1.4-3.3 2.2-1.9 0.9-4.1 0.9h-1q-2.4 0-4.5-1-2-1-3.5-2.7v17.2h-4.2v-49.7h1.4l2.3 3.6q1.5-2 3.7-3.1 2.2-1.2 4.8-1.2h1q2.2 0 4.1 0.8 1.9 0.8 3.3 2.3 1.4 1.4 2.2 3.3 0.9 1.9 0.9 4.1zm-4.3 0.2v-16.5q0-1.3-0.5-2.4-0.5-1.1-1.3-2-0.8-0.8-2-1.3-1.1-0.5-2.4-0.5h-2.8q-1.3 0-2.4 0.5-1.1 0.5-2 1.3-0.8 0.9-1.3 2-0.5 1.1-0.5 2.4v16.5q0 1.3 0.5 2.4 0.5 1.1 1.3 2 0.9 0.8 2 1.3 1.1 0.5 2.4 0.5h2.8q1.3 0 2.4-0.5 1.2-0.5 2-1.3 0.8-0.9 1.3-2 0.5-1.1 0.5-2.4zm18.8 4.1l-3.6 15.3h-1.7v-15.3zm54.1-6.1q0 2.5-0.9 4.7-1 2.2-2.6 3.9-1.7 1.6-3.9 2.6-2.2 0.9-4.8 0.9h-3.5q-2.5 0-4.8-0.9-2.2-1-3.9-2.6-1.6-1.7-2.6-3.9-0.9-2.2-0.9-4.7v-26.7q0-2.5 0.9-4.7 1-2.3 2.6-3.9 1.7-1.7 3.9-2.7 2.3-0.9 4.8-0.9h3.5q2.6 0 4.8 0.9 2.2 1 3.9 2.7 1.6 1.6 2.6 3.9 0.9 2.2 0.9 4.7zm-4.4 0v-26.7q0-1.6-0.7-3.1-0.6-1.4-1.7-2.5-1-1.1-2.5-1.7-1.4-0.6-3.1-0.6h-3.1q-1.7 0-3.1 0.6-1.4 0.6-2.5 1.7-1.1 1.1-1.7 2.5-0.7 1.5-0.7 3.1v26.7q0 1.7 0.7 3.1 0.6 1.4 1.7 2.5 1.1 1.1 2.5 1.7 1.4 0.7 3.1 0.7h3.1q1.7 0 3.1-0.7 1.5-0.6 2.5-1.7 1.1-1.1 1.7-2.5 0.7-1.4 0.7-3.1zm37.4 11.5h-1.5l-2.3-3.6q-1.5 2-3.7 3.1-2.1 1.2-4.7 1.2h-1.1q-2.2 0-4.1-0.8-1.9-0.8-3.3-2.3-1.4-1.4-2.2-3.3-0.8-1.9-0.8-4v-25.8h4.2v26q0 1.3 0.5 2.4 0.5 1.1 1.3 2 0.9 0.8 2 1.3 1.1 0.5 2.4 0.5h2.8q1.3 0 2.4-0.5 1.2-0.5 2-1.3 0.8-0.9 1.3-2 0.5-1.1 0.5-2.4v-26h4.3zm23.2-31.4h-4.3q-1.3 0-2.4 0.5-1.1 0.5-2 1.3-0.8 0.8-1.3 2-0.5 1.1-0.5 2.4v25.2h-4.2v-35.4h1.4l2.3 3.6q1.5-2 3.7-3.2 2.2-1.1 4.8-1.1h2.5zm50.6 18.4v1.5q0 2.5-1 4.7-1 2.2-2.8 3.9-1.7 1.7-3.9 2.6-2.3 1-4.8 1h-3.6q-2.5 0-4.8-1-2.3-0.9-4-2.6-1.7-1.7-2.7-3.9-1-2.2-1-4.7v-2l4.4-0.7v2.7q0 1.6 0.7 3.1 0.7 1.4 1.8 2.5 1.2 1.1 2.7 1.7 1.5 0.7 3.1 0.7h3.2q1.6 0 3.1-0.7 1.5-0.6 2.6-1.7 1.2-1.1 1.9-2.5 0.6-1.5 0.6-3.1v-1.5q0-2.6-1-4.3-1-1.7-2.6-2.8-1.7-1.2-3.8-2.1-2.1-0.8-4.3-1.6-2.2-0.9-4.3-1.9-2.1-1-3.8-2.5-1.6-1.5-2.6-3.7-1-2.2-1-5.4v-0.9q0-2.5 0.9-4.7 1-2.3 2.6-3.9 1.7-1.7 3.9-2.6 2.3-1 4.8-1h3.2q2.5 0 4.7 1 2.2 0.9 3.9 2.6 1.6 1.6 2.6 3.9 1 2.2 1 4.7v1.3l-4.5 0.7v-2q0-1.6-0.6-3.1-0.7-1.4-1.7-2.5-1.1-1.1-2.5-1.7-1.5-0.6-3.1-0.6h-2.8q-1.7 0-3.1 0.6-1.4 0.6-2.5 1.7-1.1 1.1-1.8 2.5-0.6 1.5-0.6 3.1v0.9q0 2.4 1 4.1 1 1.6 2.7 2.8 1.7 1.1 3.7 2l4.4 1.7q2.2 0.9 4.3 1.9 2.1 1.1 3.7 2.6 1.7 1.6 2.7 3.8 1 2.2 1 5.4zm31.9 3.2q0 2.2-0.9 4.1-0.8 1.9-2.2 3.3-1.4 1.4-3.3 2.3-1.9 0.8-4.1 0.8h-2.8q-2.1 0-4.1-0.8-1.9-0.9-3.3-2.3-1.4-1.4-2.2-3.3-0.8-1.9-0.8-4.1v-15.9q0-2.2 0.8-4.1 0.8-1.9 2.2-3.3 1.4-1.5 3.3-2.3 2-0.8 4.1-0.8h2.8q2.2 0 4.1 0.8 1.9 0.8 3.3 2.3 1.4 1.4 2.2 3.3 0.9 1.9 0.9 4.1zm-4.3 0.2v-16.5q0-1.3-0.5-2.4-0.5-1.1-1.3-2-0.8-0.8-1.9-1.3-1.2-0.5-2.5-0.5h-2.8q-1.3 0-2.4 0.5-1.1 0.5-2 1.3-0.8 0.9-1.3 2-0.5 1.1-0.5 2.4v16.5q0 1.3 0.5 2.4 0.5 1.1 1.3 2 0.9 0.8 2 1.3 1.1 0.5 2.4 0.5h2.8q1.3 0 2.5-0.5 1.1-0.5 1.9-1.3 0.8-0.9 1.3-2 0.5-1.1 0.5-2.4zm18.5 9.5h-4.3v-49.7h4.3zm33.6 0h-1.4l-2.4-3.6q-1.4 2-3.6 3.2-2.2 1.1-4.8 1.1h-1.1q-2.1 0-4-0.8-1.9-0.8-3.3-2.2-1.5-1.4-2.3-3.3-0.8-1.9-0.8-4.1v-25.7h4.3v25.9q0 1.3 0.5 2.5 0.4 1.1 1.3 1.9 0.8 0.8 1.9 1.3 1.2 0.5 2.4 0.5h2.9q1.3 0 2.4-0.5 1.1-0.5 1.9-1.3 0.9-0.8 1.4-1.9 0.5-1.2 0.5-2.5v-25.9h4.2zm25.3 0h-3.8q-2 0-3.7-0.8-1.7-0.7-3-2-1.3-1.2-2-2.9-0.8-1.7-0.8-3.7v-22h-6.3v-4.1h6.3v-8.5l4.3-0.7v9.2h9v4.1h-9v22.2q0 1.1 0.4 2 0.4 0.9 1.1 1.6 0.7 0.7 1.6 1.1 1 0.4 2.1 0.4h3.8zm13.9-44h-5v-5.6h5zm-0.3 43.9h-4.3v-35.4h4.3zm33.6-9.8q0 2.2-0.8 4.1-0.9 1.9-2.3 3.3-1.4 1.4-3.3 2.2-1.9 0.9-4.1 0.9h-2.8q-2.2 0-4.1-0.9-1.9-0.8-3.3-2.2-1.4-1.4-2.2-3.3-0.8-1.9-0.8-4.1v-15.9q0-2.2 0.8-4.1 0.8-1.9 2.2-3.3 1.4-1.5 3.3-2.3 1.9-0.8 4.1-0.8h2.8q2.2 0 4.1 0.8 1.9 0.8 3.3 2.3 1.4 1.4 2.3 3.3 0.8 1.9 0.8 4.1zm-4.3 0.2v-16.5q0-1.3-0.5-2.4-0.5-1.1-1.3-2-0.8-0.8-2-1.3-1.1-0.5-2.4-0.5h-2.8q-1.3 0-2.4 0.5-1.1 0.5-2 1.3-0.8 0.9-1.3 2-0.5 1.1-0.5 2.4v16.5q0 1.3 0.5 2.4 0.5 1.1 1.3 2 0.9 0.8 2 1.3 1.1 0.5 2.4 0.5h2.8q1.3 0 2.4-0.5 1.2-0.5 2-1.3 0.8-0.9 1.3-2 0.5-1.1 0.5-2.4zm36.5 9.5h-4.3v-26q0-1.3-0.5-2.4-0.5-1.1-1.3-2-0.8-0.8-1.9-1.3-1.2-0.5-2.5-0.5h-2.8q-1.3 0-2.4 0.5-1.1 0.5-2 1.3-0.8 0.9-1.3 2-0.4 1.1-0.4 2.4v26h-4.3v-35.5h1.4l2.3 3.6q1.5-1.9 3.7-3.1 2.2-1.2 4.8-1.2h1q2.2 0 4.1 0.8 1.9 0.8 3.3 2.3 1.4 1.4 2.3 3.3 0.8 1.9 0.8 4.1zm14.5 0h-5.3v-5.4h5.3z"/>
			<path class="s4" d="m308.2 267.5h377.1"/>
		</g>
	</g>
</svg>