<svg version="1.2" xmlns="http://www.w3.org/2000/svg" viewBox="0 0 317 301" width="317" height="301">
	<title>good</title>
	<style>
		.s0 { fill: #309255 } 
		.s1 { fill: #282828 } 
	</style>
	<g id="outer-wrapper">
		<g id="inner-wrapper">
			<path class="s0" d="m145.5 11.9c-35 0-68.5 13.8-93.2 38.5-24.7 24.7-38.6 58.3-38.6 93.2 0 34.9 13.9 68.5 38.6 93.2 24.7 24.7 58.2 38.6 93.2 38.6 34.9 0 68.4-13.9 93.1-38.6 24.7-24.7 38.6-58.3 38.6-93.2 0-34.9-13.9-68.5-38.6-93.2-24.7-24.7-58.2-38.5-93.1-38.5z"/>
			<path fill-rule="evenodd" class="s1" d="m142.6 168.8c-3.2-0.5-6.3-1.5-9.1-3-2.8-1.6-5.4-3.6-7.5-6-2.2-2.4-3.9-5.2-5.1-8.2-2.2-5.4-3.7-11-4.6-16.8-0.9-5.8-1.1-11.6-0.7-17.4 0.4-5.9 1.5-11.6 3.2-17.2 1.7-5.6 4-10.9 7-16q2.1 5.3 5.2 10.1 3.1 4.8 7.2 8.9 4 4 8.8 7.2 4.7 3.2 10 5.3c4.3 1.7 8.1 4.5 11 8 2.9 3.6 4.9 7.8 5.8 12.3 0.9 4.5 0.6 9.2-0.7 13.6-1.4 4.4-3.8 8.3-7.1 11.6 3.4 17.2-6.8 34.2-23.6 39.5-0.8 0.2-1.7 0.1-2.5-0.3-0.8-0.5-1.3-1.2-1.6-2-0.2-0.9-0.2-1.8 0.2-2.5 0.4-0.8 1.1-1.4 1.9-1.7 5.3-1.7 10-4.9 13.4-9.2 3.5-4.3 5.6-9.6 6-15.1 0.4-5.6-0.9-11.1-3.6-15.9-2.8-4.8-6.9-8.7-11.9-11.1q2.5 2.5 4.3 5.5 1.8 3 2.8 6.3 1 3.4 1.2 6.8 0.3 3.5-0.3 7c-3.2 0.6-6.5 0.7-9.7 0.3zm55.5-80.6c27.6 12.7 42 43.4 34.2 72.7l8.8 8.1-41.7 20.7 8.7-50.9 8.3 7.6c1.1-5.2 1.5-10.6 1.2-15.9-0.2-5.3-1.2-10.5-2.8-15.6-1.6-5.1-3.8-9.9-6.6-14.4-2.8-4.5-6.2-8.6-10.1-12.3zm-107.5 109.4c-27.6-12.7-42-43.4-34.2-72.7l-8.8-8.1 41.6-20.7-8.7 50.9-8.2-7.5c-1.1 5.2-1.5 10.5-1.2 15.8 0.2 5.3 1.2 10.5 2.7 15.6 1.6 5.1 3.9 9.9 6.7 14.4 2.8 4.5 6.2 8.6 10.1 12.3z"/>
		</g>
		<g id="inner-wrapper copy">
			<path class="s0" d="m145.5 11.9c-35 0-68.5 13.8-93.2 38.5-24.7 24.7-38.6 58.3-38.6 93.2 0 34.9 13.9 68.5 38.6 93.2 24.7 24.7 58.2 38.6 93.2 38.6 34.9 0 68.4-13.9 93.1-38.6 24.7-24.7 38.6-58.3 38.6-93.2 0-34.9-13.9-68.5-38.6-93.2-24.7-24.7-58.2-38.5-93.1-38.5z"/>
			<path fill-rule="evenodd" class="s1" d="m142.6 168.8c-3.2-0.5-6.3-1.5-9.1-3-2.8-1.6-5.4-3.6-7.5-6-2.2-2.4-3.9-5.2-5.1-8.2-2.2-5.4-3.7-11-4.6-16.8-0.9-5.8-1.1-11.6-0.7-17.4 0.4-5.9 1.5-11.6 3.2-17.2 1.7-5.6 4-10.9 7-16q2.1 5.3 5.2 10.1 3.1 4.8 7.2 8.9 4 4 8.8 7.2 4.7 3.2 10 5.3c4.3 1.7 8.1 4.5 11 8 2.9 3.6 4.9 7.8 5.8 12.3 0.9 4.5 0.6 9.2-0.7 13.6-1.4 4.4-3.8 8.3-7.1 11.6 3.4 17.2-6.8 34.2-23.6 39.5-0.8 0.2-1.7 0.1-2.5-0.3-0.8-0.5-1.3-1.2-1.6-2-0.2-0.9-0.2-1.8 0.2-2.5 0.4-0.8 1.1-1.4 1.9-1.7 5.3-1.7 10-4.9 13.4-9.2 3.5-4.3 5.6-9.6 6-15.1 0.4-5.6-0.9-11.1-3.6-15.9-2.8-4.8-6.9-8.7-11.9-11.1q2.5 2.5 4.3 5.5 1.8 3 2.8 6.3 1 3.4 1.2 6.8 0.3 3.5-0.3 7c-3.2 0.6-6.5 0.7-9.7 0.3zm55.5-80.6c27.6 12.7 42 43.4 34.2 72.7l8.8 8.1-41.7 20.7 8.7-50.9 8.3 7.6c1.1-5.2 1.5-10.6 1.2-15.9-0.2-5.3-1.2-10.5-2.8-15.6-1.6-5.1-3.8-9.9-6.6-14.4-2.8-4.5-6.2-8.6-10.1-12.3zm-107.5 109.4c-27.6-12.7-42-43.4-34.2-72.7l-8.8-8.1 41.6-20.7-8.7 50.9-8.2-7.5c-1.1 5.2-1.5 10.5-1.2 15.8 0.2 5.3 1.2 10.5 2.7 15.6 1.6 5.1 3.9 9.9 6.7 14.4 2.8 4.5 6.2 8.6 10.1 12.3z"/>
		</g>
	</g>
</svg>