<svg xmlns="http://www.w3.org/2000/svg" xml:space="preserve" width="2000" height="144" viewBox="0 0 2000 144" data-version="1" data-id="lg_frkCHgkHDDUM6RRQSE"><g id="outer-wrapper" data-padding="20" transform="matrix(1,0,0,1,0,0)"><g id="inner-wrapper" transform="matrix(0.9719101123595506,0,0,0.9719101123595506,10,2.0224719101123583)"><path fill="#797979" d="M731.1787328253638 -0.11099999999999A65.007 65.007 0 1 0 731.1787328253638 129.90300000000002A65.007 65.007 0 1 0 731.1787328253638 -0.11099999999999 "></path><rect width="575" height="113" x="323.0787328253636" y="-391.654" fill="none" rx="0" ry="0" transform="translate(480.52 401.1)"></rect><path fill="#797979" stroke="#797979" stroke-width="1.545" d="M844.1687328253638 98.62599999999998H812.5687328253638Q807.9687328253638 98.62599999999998 807.9687328253638 94.02599999999995V82.32599999999996Q807.9687328253638 77.72599999999994 812.5687328253638 77.72599999999994H839.4687328253638Q840.2687328253638 77.72599999999994 840.6687328253638 77.12599999999992T841.0687328253638 75.82599999999991Q841.0687328253638 73.5259999999999 839.3687328253638 73.42599999999993L824.3687328253638 71.32599999999991Q819.3687328253638 70.5259999999999 815.6687328253638 68.67599999999993T809.9687328253638 63.22599999999994T807.9687328253638 53.72599999999994V43.22599999999994Q807.9687328253638 34.22599999999994 813.6687328253638 29.42599999999993T829.6687328253638 24.62599999999992H857.6687328253638Q862.2687328253638 24.62599999999992 862.2687328253638 29.225999999999942V41.12599999999992Q862.2687328253638 45.72599999999994 857.6687328253638 45.72599999999994H834.3687328253638Q833.5687328253638 45.72599999999994 833.1187328253638 46.325999999999965T832.6687328253638 47.72599999999994Q832.6687328253638 49.72599999999994 834.4687328253638 49.92599999999993L849.3687328253638 51.92599999999993Q854.3687328253638 52.62599999999992 858.0687328253638 54.525999999999954T863.8187328253638 60.025999999999954T865.8687328253638 69.52599999999995V80.02599999999995Q865.8687328253638 89.02599999999995 860.1187328253638 93.82599999999996T844.1687328253638 98.62599999999998ZM812.5687328253638 97.62599999999998H844.1687328253638Q853.8687328253637 97.62599999999998 859.3687328253637 93.07599999999996T864.8687328253637 80.02599999999995V69.52599999999995Q864.8687328253637 63.92599999999993 862.9187328253638 60.525999999999954T857.4687328253638 55.375999999999976T849.2687328253638 52.92599999999999L834.3687328253638 50.92599999999999Q831.6687328253638 50.625999999999976 831.6687328253638 47.726Q831.6687328253638 44.726 834.3687328253638 44.726H857.6687328253638Q861.2687328253638 44.726 861.2687328253638 41.125999999999976V29.226Q861.2687328253638 25.625999999999976 857.6687328253638 25.625999999999976H829.6687328253638Q819.9687328253638 25.625999999999976 814.4687328253638 30.125999999999976T808.9687328253638 43.226V53.726Q808.9687328253638 62.125999999999976 813.2187328253638 65.67599999999999T824.4687328253638 70.32599999999996L839.4687328253638 72.42599999999999Q840.7687328253638 72.52600000000001 841.4187328253638 73.32599999999996T842.0687328253638 75.82599999999996Q842.0687328253638 77.02599999999995 841.4187328253638 77.87599999999998T839.4687328253638 78.726H812.5687328253638Q808.9687328253638 78.726 808.9687328253638 82.32600000000002V94.02600000000001Q808.9687328253638 97.62600000000003 812.5687328253638 97.62600000000003ZM852.2687328253637 34.625999999999976V35.625999999999976H830.0687328253638Q825.8687328253638 35.625999999999976 823.3687328253638 37.92599999999999T820.8687328253638 43.726V51.92599999999999Q820.8687328253638 55.42599999999999 822.2687328253638 56.77600000000001T825.9687328253638 58.62600000000003L847.0687328253638 62.926000000000045Q850.0687328253638 63.52600000000007 852.0187328253637 65.47600000000006T853.9687328253638 72.72600000000006V78.52600000000007Q853.9687328253638 82.92600000000004 850.9687328253638 85.77600000000007T842.8687328253637 88.62600000000009H817.9687328253638V87.62600000000009H842.8687328253637Q847.5687328253638 87.62600000000009 850.2687328253637 85.07600000000008T852.9687328253638 78.52600000000007V72.72600000000006Q852.9687328253638 68.02600000000007 851.3187328253638 66.27600000000007T846.8687328253637 63.926000000000045L825.7687328253637 59.62600000000003Q823.1687328253638 59.12600000000003 821.5187328253637 57.57600000000002T819.8687328253637 51.926000000000045V43.726000000000056Q819.8687328253637 39.726000000000056 822.6687328253638 37.176000000000045T830.0687328253638 34.62600000000003ZM923.6687328253638 98.62599999999998H899.2687328253638Q886.0687328253639 98.62599999999998 879.8687328253638 93.37599999999998T873.6687328253638 77.226V46.125999999999976Q873.6687328253638 35.125999999999976 879.8687328253638 29.875999999999976T899.2687328253638 24.625999999999976H923.6687328253638Q928.2687328253638 24.625999999999976 928.2687328253638 29.226V41.32600000000002Q928.2687328253638 45.926000000000045 923.6687328253638 45.926000000000045H903.5687328253638Q898.4687328253638 45.926000000000045 898.4687328253638 49.926000000000045V73.72600000000006Q898.4687328253638 75.82600000000008 899.7687328253637 76.67600000000004T903.5687328253638 77.52600000000007H923.6687328253638Q928.2687328253638 77.52600000000007 928.2687328253638 82.12600000000009V94.02600000000007Q928.2687328253638 98.62600000000009 923.6687328253638 98.62600000000009ZM899.2687328253638 97.62599999999998H923.6687328253638Q927.2687328253638 97.62599999999998 927.2687328253638 94.02599999999995V82.12599999999998Q927.2687328253638 78.52599999999995 923.6687328253638 78.52599999999995H903.5687328253638Q897.4687328253638 78.52599999999995 897.4687328253638 73.72599999999994V49.92599999999993Q897.4687328253638 44.92599999999993 903.5687328253638 44.92599999999993H923.6687328253638Q927.2687328253638 44.92599999999993 927.2687328253638 41.32599999999991V29.225999999999885Q927.2687328253638 25.625999999999863 923.6687328253638 25.625999999999863H899.2687328253638Q886.6687328253638 25.625999999999863 880.6687328253638 30.625999999999863T874.6687328253638 46.12599999999986V77.22599999999989Q874.6687328253638 87.62599999999986 880.6687328253638 92.62599999999986T899.2687328253638 97.62599999999986ZM918.1687328253638 87.62599999999998V88.62599999999998H901.4687328253638Q894.9687328253638 88.62599999999998 891.5187328253638 87.32599999999996T886.7687328253638 83.17599999999999T885.4687328253638 75.726V47.726Q885.4687328253638 42.92599999999999 886.8187328253639 40.07600000000002T891.6187328253638 35.926000000000045T901.4687328253639 34.62600000000003H918.1687328253638V35.62600000000003H901.4687328253639Q895.5687328253639 35.62600000000003 892.3187328253639 36.77600000000001T887.7687328253639 40.57600000000002T886.4687328253639 47.726V75.726Q886.4687328253639 80.02600000000001 887.7187328253639 82.67599999999999T892.2187328253639 86.476T901.4687328253639 87.62599999999998ZM957.5687328253638 98.62599999999998H942.1687328253638Q937.5687328253638 98.62599999999998 937.5687328253638 94.02599999999995V29.225999999999942Q937.5687328253638 24.62599999999992 942.1687328253638 24.62599999999992H975.4687328253639Q983.4687328253639 24.62599999999992 987.9687328253639 26.87599999999992T994.3187328253639 33.12599999999992T996.1687328253639 42.32599999999991V46.92599999999993Q996.1687328253639 50.62599999999992 995.2687328253639 53.37599999999992T992.2687328253639 57.82599999999991Q997.0687328253639 59.12599999999992 999.868732825364 62.975999999999885T1002.6687328253639 72.82599999999991V94.0259999999999Q1002.6687328253639 98.62599999999992 998.0687328253639 98.62599999999992H982.5687328253639Q977.9687328253639 98.62599999999992 977.9687328253639 94.0259999999999V78.72599999999989Q977.9687328253639 77.0259999999999 977.3687328253638 76.22599999999989T975.1687328253639 75.42599999999987H962.1687328253639V94.0259999999999Q962.1687328253639 98.62599999999992 957.5687328253639 98.62599999999992ZM942.1687328253638 97.62599999999998H957.5687328253638Q961.1687328253638 97.62599999999998 961.1687328253638 94.02599999999995V74.42599999999993H975.1687328253638Q977.2687328253638 74.42599999999993 978.1187328253638 75.42599999999993T978.9687328253639 78.72599999999994V94.02599999999995Q978.9687328253639 97.62599999999998 982.5687328253639 97.62599999999998H998.0687328253639Q1001.6687328253639 97.62599999999998 1001.6687328253639 94.02599999999995V72.82599999999996Q1001.6687328253639 66.52599999999995 998.3687328253638 62.72599999999994T989.5687328253639 58.325999999999965Q992.7687328253638 56.92599999999999 993.9687328253639 54.025999999999954T995.1687328253638 46.92599999999993V42.32599999999991Q995.1687328253638 37.32599999999991 993.3687328253638 33.57599999999991T987.2687328253638 27.725999999999885T975.4687328253638 25.625999999999863H942.1687328253638Q938.5687328253638 25.625999999999863 938.5687328253638 29.225999999999885V94.0259999999999Q938.5687328253638 97.62599999999992 942.1687328253638 97.62599999999992ZM990.7687328253638 88.62599999999998H989.7687328253638V75.226Q989.7687328253638 65.42599999999999 978.6687328253638 65.42599999999999H950.3687328253638V88.62599999999998H949.3687328253638V34.625999999999976H972.1687328253638Q978.0687328253638 34.625999999999976 980.8187328253638 37.825999999999965T983.5687328253638 46.025999999999954V52.92599999999993Q983.5687328253638 57.42599999999993 982.3687328253638 60.42599999999993T977.5687328253638 64.52599999999995H978.6687328253638Q990.7687328253638 64.52599999999995 990.7687328253638 75.22599999999994ZM950.3687328253638 35.625999999999976V64.52599999999995H972.1687328253639Q978.3687328253638 64.52599999999995 980.4687328253639 61.525999999999954T982.5687328253639 53.025999999999954V46.025999999999954Q982.5687328253639 41.325999999999965 980.0187328253639 38.47599999999994T972.1687328253639 35.62599999999992ZM961.1687328253639 56.42599999999999V43.625999999999976H968.6687328253639Q971.2687328253639 43.625999999999976 972.1687328253639 44.976T973.0687328253639 48.32600000000002V51.726Q973.0687328253639 53.726 972.1687328253639 55.07600000000002T968.6687328253639 56.426000000000045ZM968.6687328253639 44.625999999999976H962.1687328253639V55.42599999999999H968.6687328253639Q970.7687328253639 55.42599999999999 971.4187328253639 54.375999999999976T972.0687328253639 51.726V48.32600000000002Q972.0687328253639 46.726 971.4187328253639 45.676000000000045T968.6687328253639 44.62600000000003ZM1034.2687328253637 81.02599999999995V94.02599999999995Q1034.2687328253637 98.62599999999998 1029.6687328253638 98.62599999999998H1014.9687328253639Q1010.3687328253638 98.62599999999998 1010.3687328253638 94.02599999999995V67.62599999999998Q1010.3687328253638 64.52599999999995 1011.3187328253638 60.575999999999965T1014.3687328253638 51.22599999999994L1023.0687328253638 28.62599999999992Q1024.3687328253638 24.62599999999992 1029.068732825364 24.62599999999992H1055.9687328253638Q1060.568732825364 24.62599999999992 1061.8687328253636 28.525999999999897L1070.568732825364 51.225999999999885Q1072.6687328253638 56.62599999999986 1073.6187328253636 60.57599999999991T1074.568732825364 67.62599999999992V94.0259999999999Q1074.568732825364 98.62599999999992 1069.9687328253638 98.62599999999992H1054.8687328253636Q1049.9687328253638 98.62599999999992 1049.9687328253638 94.0259999999999V81.0259999999999ZM1033.2687328253637 94.02599999999995V80.02599999999995H1050.968732825364V94.02599999999995Q1050.968732825364 97.62599999999998 1054.8687328253638 97.62599999999998H1069.968732825364Q1073.568732825364 97.62599999999998 1073.568732825364 94.02599999999995V67.62599999999998Q1073.568732825364 64.62599999999998 1072.6187328253638 60.726T1069.6687328253638 51.625999999999976L1060.968732825364 28.925999999999988Q1059.8687328253638 25.625999999999976 1055.968732825364 25.625999999999976H1029.068732825364Q1025.068732825364 25.625999999999976 1023.9687328253639 28.925999999999988L1015.2687328253639 51.625999999999976Q1013.2687328253639 56.825999999999965 1012.3187328253639 60.726T1011.368732825364 67.62599999999998V94.02599999999995Q1011.368732825364 97.62599999999998 1014.968732825364 97.62599999999998H1029.6687328253638Q1033.268732825364 97.62599999999998 1033.268732825364 94.02599999999995ZM1062.968732825364 67.32599999999996V88.62599999999998H1061.968732825364V71.42599999999999H1022.9687328253639V88.62599999999998H1021.9687328253639V67.32599999999996Q1021.9687328253639 64.52599999999995 1022.4187328253638 62.17599999999999T1023.6687328253638 57.625999999999976L1030.068732825364 41.226Q1031.1687328253638 38.42599999999999 1032.568732825364 36.52600000000001T1037.3687328253638 34.62600000000003H1047.1687328253638Q1050.468732825364 34.62600000000003 1051.818732825364 36.52600000000001T1054.3687328253638 41.32600000000002L1061.2687328253637 57.62600000000003Q1062.068732825364 59.82600000000002 1062.5187328253637 62.176000000000045T1062.9687328253638 67.32600000000002ZM1022.9687328253639 67.32599999999996V70.42599999999999H1061.968732825364V67.32599999999996Q1061.968732825364 64.62599999999998 1061.568732825364 62.325999999999965T1060.3687328253638 58.025999999999954L1053.468732825364 41.72599999999994Q1052.3687328253638 39.12599999999992 1051.1687328253638 37.37599999999992T1047.1687328253638 35.62599999999992H1037.3687328253638Q1034.3687328253638 35.62599999999992 1033.1687328253638 37.32599999999991T1030.968732825364 41.62599999999992L1024.568732825364 58.0259999999999Q1023.868732825364 60.0259999999999 1023.4187328253639 62.32599999999991T1022.968732825364 67.32599999999991ZM1034.2687328253637 61.825999999999965L1038.968732825364 46.625999999999976Q1039.6687328253638 44.92599999999999 1040.8687328253638 44.92599999999999H1043.3687328253638Q1044.568732825364 44.92599999999999 1045.2687328253637 46.625999999999976L1049.9687328253638 61.825999999999965ZM1039.968732825364 46.92599999999999L1035.6687328253638 60.825999999999965H1048.568732825364L1044.2687328253637 46.92599999999999Q1044.1687328253638 46.52600000000001 1043.9687328253638 46.226T1043.3687328253636 45.92599999999999H1040.8687328253636Q1040.4687328253638 45.92599999999999 1040.2687328253637 46.27600000000001T1039.9687328253638 46.92599999999999ZM1104.968732825364 98.62599999999998H1089.468732825364Q1084.8687328253638 98.62599999999998 1084.8687328253638 94.02599999999995V29.225999999999942Q1084.8687328253638 24.62599999999992 1089.468732825364 24.62599999999992H1120.068732825364Q1129.6687328253638 24.62599999999992 1135.0187328253637 27.225999999999942T1142.5187328253637 34.42599999999993T1144.6687328253638 45.12599999999992V57.92599999999993Q1144.6687328253638 63.92599999999993 1142.5187328253637 68.57599999999991T1135.0187328253637 75.82599999999991T1120.068732825364 78.42599999999993H1109.568732825364V94.02599999999995Q1109.568732825364 98.62599999999998 1104.968732825364 98.62599999999998ZM1089.468732825364 97.62599999999998H1104.968732825364Q1108.568732825364 97.62599999999998 1108.568732825364 94.02599999999995V77.42599999999993H1120.068732825364Q1129.1687328253638 77.42599999999993 1134.318732825364 74.97599999999994T1141.568732825364 68.12599999999992T1143.6687328253638 57.92599999999993V45.12599999999992Q1143.6687328253638 39.32599999999991 1141.568732825364 34.92599999999993T1134.318732825364 28.075999999999908T1120.068732825364 25.62599999999992H1089.4687328253638Q1085.8687328253636 25.62599999999992 1085.8687328253636 29.225999999999942V94.02599999999995Q1085.8687328253636 97.62599999999998 1089.4687328253638 97.62599999999998ZM1118.6687328253638 68.92599999999999H1098.068732825364V88.62599999999998H1097.068732825364V34.625999999999976H1118.6687328253638Q1124.9687328253638 34.625999999999976 1128.2187328253638 36.42599999999999T1132.568732825364 41.27600000000001T1133.6687328253638 48.226V55.625999999999976Q1133.6687328253638 59.525999999999954 1132.568732825364 62.525999999999954T1128.2187328253638 67.22599999999994T1118.6687328253638 68.92599999999993ZM1098.068732825364 67.92599999999999H1118.6687328253638Q1124.568732825364 67.92599999999999 1127.568732825364 66.37599999999998T1131.6187328253636 62.025999999999954T1132.6687328253638 55.625999999999976V48.226Q1132.6687328253638 44.625999999999976 1131.6187328253636 41.77600000000001T1127.568732825364 37.27600000000001T1118.6687328253638 35.62600000000003H1098.068732825364ZM1108.3687328253638 59.42599999999999V44.325999999999965H1117.3687328253638Q1120.2687328253637 44.325999999999965 1121.1687328253638 45.775999999999954T1122.068732825364 49.22599999999994V54.525999999999954Q1122.068732825364 56.42599999999993 1121.1687328253638 57.92599999999993T1117.3687328253638 59.42599999999993ZM1117.3687328253638 45.325999999999965H1109.3687328253638V58.42599999999999H1117.3687328253638Q1119.6687328253638 58.42599999999999 1120.3687328253638 57.226T1121.068732825364 54.52600000000001V49.226Q1121.068732825364 47.726 1120.3687328253638 46.52600000000001T1117.3687328253638 45.32600000000002ZM1198.6687328253638 98.62599999999998H1156.068732825364Q1151.4687328253638 98.62599999999998 1151.4687328253638 94.02599999999995V82.12599999999998Q1151.4687328253638 77.52599999999995 1156.068732825364 77.52599999999995H1164.9687328253638V45.92599999999993H1156.068732825364Q1151.4687328253638 45.92599999999993 1151.4687328253638 41.32599999999991V29.225999999999885Q1151.4687328253638 24.625999999999863 1156.068732825364 24.625999999999863H1198.6687328253638Q1203.2687328253637 24.625999999999863 1203.2687328253637 29.225999999999885V41.32599999999991Q1203.2687328253637 45.92599999999993 1198.6687328253638 45.92599999999993H1189.9687328253638V77.52599999999995H1198.6687328253638Q1203.2687328253637 77.52599999999995 1203.2687328253637 82.12599999999998V94.02599999999995Q1203.2687328253637 98.62599999999998 1198.6687328253638 98.62599999999998ZM1156.068732825364 97.62599999999998H1198.6687328253638Q1202.2687328253637 97.62599999999998 1202.2687328253637 94.02599999999995V82.12599999999998Q1202.2687328253637 78.52599999999995 1198.6687328253638 78.52599999999995H1188.9687328253638V44.92599999999993H1198.6687328253638Q1202.2687328253637 44.92599999999993 1202.2687328253637 41.32599999999991V29.225999999999885Q1202.2687328253637 25.625999999999863 1198.6687328253638 25.625999999999863H1156.068732825364Q1152.4687328253638 25.625999999999863 1152.4687328253638 29.225999999999885V41.32599999999991Q1152.4687328253638 44.92599999999993 1156.068732825364 44.92599999999993H1165.9687328253638V78.52599999999995H1156.068732825364Q1152.4687328253638 78.52599999999995 1152.4687328253638 82.12599999999998V94.02599999999995Q1152.4687328253638 97.62599999999998 1156.068732825364 97.62599999999998ZM1161.4687328253638 35.625999999999976V34.625999999999976H1193.2687328253637V35.625999999999976H1177.9687328253638V87.62599999999998H1193.2687328253637V88.62599999999998H1161.4687328253638V87.62599999999998H1176.9687328253638V35.625999999999976ZM1233.6687328253638 98.62599999999998H1218.1687328253638Q1213.568732825364 98.62599999999998 1213.568732825364 94.02599999999995V29.225999999999942Q1213.568732825364 24.62599999999992 1218.1687328253638 24.62599999999992H1262.7687328253637Q1267.3687328253638 24.62599999999992 1267.3687328253638 29.225999999999942V41.12599999999992Q1267.3687328253638 45.72599999999994 1262.7687328253637 45.72599999999994H1238.2687328253637V54.12599999999992H1254.6687328253638Q1259.2687328253637 54.12599999999992 1259.2687328253637 58.72599999999994V70.72599999999994Q1259.2687328253637 75.32599999999996 1254.6687328253638 75.32599999999996H1238.2687328253637V94.02599999999995Q1238.2687328253637 98.62599999999998 1233.6687328253638 98.62599999999998ZM1218.1687328253638 97.62599999999998H1233.6687328253638Q1237.2687328253637 97.62599999999998 1237.2687328253637 94.02599999999995V74.32599999999996H1254.6687328253638Q1258.2687328253637 74.32599999999996 1258.2687328253637 70.72599999999994V58.72599999999994Q1258.2687328253637 55.12599999999992 1254.6687328253638 55.12599999999992H1237.2687328253637V44.72599999999994H1262.7687328253637Q1266.3687328253638 44.72599999999994 1266.3687328253638 41.12599999999992V29.225999999999942Q1266.3687328253638 25.62599999999992 1262.7687328253637 25.62599999999992H1218.1687328253638Q1214.568732825364 25.62599999999992 1214.568732825364 29.225999999999942V94.02599999999995Q1214.568732825364 97.62599999999998 1218.1687328253638 97.62599999999998ZM1226.4687328253638 88.62599999999998H1225.4687328253638V34.625999999999976H1257.3687328253636V35.625999999999976H1226.4687328253638V64.226H1249.2687328253637V65.226H1226.4687328253638ZM1332.4687328253638 61.325999999999965L1317.4687328253638 81.62599999999998V94.02599999999995Q1317.4687328253638 98.62599999999998 1312.8687328253636 98.62599999999998H1296.6687328253638Q1294.1687328253638 98.62599999999998 1293.1187328253636 97.52599999999995T1292.068732825364 94.02599999999995V81.52599999999995L1276.9687328253638 61.325999999999965Q1275.3687328253636 59.125999999999976 1274.5187328253637 57.47599999999994T1273.3187328253637 53.72599999999994T1272.9687328253635 48.42599999999993V29.225999999999942Q1272.9687328253635 24.62599999999992 1277.5687328253637 24.62599999999992H1292.9687328253635Q1297.5687328253637 24.62599999999992 1297.5687328253637 29.225999999999942V45.62599999999992Q1297.5687328253637 46.5259999999999 1297.6687328253638 47.42599999999993T1298.2687328253637 49.32599999999991L1302.9687328253638 56.5259999999999Q1303.568732825364 57.725999999999885 1304.4687328253638 57.725999999999885H1305.4687328253638Q1306.3687328253636 57.725999999999885 1307.068732825364 56.5259999999999L1311.6687328253638 49.32599999999991Q1312.1687328253638 48.32599999999991 1312.2687328253637 47.42599999999993T1312.3687328253638 45.62599999999992V29.225999999999942Q1312.3687328253638 24.62599999999992 1316.968732825364 24.62599999999992H1331.8687328253638Q1336.468732825364 24.62599999999992 1336.468732825364 29.225999999999942V48.42599999999993Q1336.468732825364 51.62599999999992 1336.1187328253638 53.72599999999994T1334.9187328253638 57.47599999999994T1332.4687328253638 61.325999999999965ZM1296.6687328253638 97.62599999999998H1312.8687328253638Q1316.468732825364 97.62599999999998 1316.468732825364 94.02599999999995V81.32599999999996L1331.6687328253638 60.72599999999994Q1333.1687328253638 58.62599999999992 1334.018732825364 57.025999999999954T1335.1687328253638 53.47599999999994T1335.468732825364 48.42599999999993V29.225999999999942Q1335.468732825364 25.62599999999992 1331.8687328253638 25.62599999999992H1316.968732825364Q1313.3687328253638 25.62599999999992 1313.3687328253638 29.225999999999942V45.62599999999992Q1313.3687328253638 46.62599999999992 1313.2687328253637 47.67599999999993T1312.468732825364 49.82599999999991L1307.8687328253638 57.0259999999999Q1306.8687328253638 58.725999999999885 1305.468732825364 58.725999999999885H1304.468732825364Q1303.068732825364 58.725999999999885 1302.068732825364 57.0259999999999L1297.468732825364 49.82599999999991Q1296.7687328253637 48.725999999999885 1296.6687328253638 47.67599999999993T1296.568732825364 45.62599999999992V29.225999999999942Q1296.568732825364 25.62599999999992 1292.968732825364 25.62599999999992H1277.568732825364Q1273.968732825364 25.62599999999992 1273.968732825364 29.225999999999942V48.42599999999993Q1273.968732825364 51.525999999999954 1274.2687328253637 53.47599999999994T1275.4187328253638 57.025999999999954T1277.7687328253637 60.72599999999994L1293.068732825364 81.22599999999994V94.02599999999995Q1293.068732825364 97.62599999999998 1296.6687328253638 97.62599999999998ZM1305.2687328253637 88.62599999999998H1304.2687328253637V71.52599999999995H1303.2687328253637Q1301.068732825364 71.52599999999995 1299.3687328253638 70.52599999999995T1295.968732825364 67.32599999999996L1286.2687328253637 53.825999999999965Q1285.1687328253638 52.325999999999965 1284.968732825364 50.325999999999965T1284.7687328253637 46.125999999999976V34.625999999999976H1285.7687328253637V46.125999999999976Q1285.7687328253637 48.226 1285.968732825364 50.075999999999965T1287.1687328253638 53.42599999999999L1296.868732825364 66.92599999999999Q1298.268732825364 68.92599999999999 1299.9187328253638 69.726T1303.268732825364 70.52600000000001H1305.968732825364Q1307.868732825364 70.52600000000001 1309.418732825364 69.67599999999999T1312.468732825364 66.92599999999999L1322.468732825364 53.42599999999999Q1323.568732825364 52.02600000000001 1323.718732825364 50.125999999999976T1323.868732825364 46.125999999999976V34.625999999999976H1324.868732825364V46.625999999999976Q1324.868732825364 48.625999999999976 1324.6687328253638 50.476T1323.368732825364 53.82600000000002L1313.368732825364 67.32600000000002Q1311.768732825364 69.52600000000001 1310.018732825364 70.52600000000001T1305.968732825364 71.52600000000001H1305.268732825364Z " paint-order="stroke"></path><path fill="#282828" d="M734.5347328253638 77.16300000000001A14.39 14.39 0 0 0 730.6157328253638 64.55799999999999A13.645 13.645 0 0 1 728.6967328253638 89.84800000000001A1.677 1.677 0 0 0 729.6867328253638 93.05000000000001C737.9637328253638 90.46600000000001 742.9687328253638 82.06600000000003 741.3017328253638 73.55700000000002A13.655 13.655 0 0 0 736.8877328253637 51.13499999999999A27.88 27.88 0 0 1 721.4557328253637 35.59100000000001A38.18 38.18 0 0 0 719.0617328253637 68.86099999999999A13.635 13.635 0 0 0 734.5247328253638 77.16300000000001M757.1637328253638 37.57800000000003C770.7507328253638 43.849000000000046 777.8667328253638 58.97800000000001 774.0307328253638 73.44300000000004L778.3737328253637 77.42300000000006L757.8097328253638 87.64300000000009L762.1027328253638 62.52500000000009L766.1727328253637 66.25200000000007A30.8 30.8 0 0 0 757.1637328253637 37.56800000000004M704.0937328253638 91.53400000000005C690.5067328253638 85.26300000000003 683.3907328253638 70.13400000000007 687.2267328253638 55.66900000000004L682.8837328253637 51.68900000000002L703.4367328253637 41.459L699.1447328253637 66.58699999999999L695.0747328253638 62.849999999999966A30.8 30.8 0 0 0 704.0837328253638 91.53399999999999 "></path><rect width="342" height="39.55" x="439.5787328253638" y="-354.929" fill="none" rx="0" ry="0" transform="translate(559.85 459.49)"></rect><path fill="#797979" d="M1014.4587328253639 110.32600000000002L1008.1687328253638 123.106V134.82600000000002H1005.9687328253639V123.13600000000002L999.6287328253638 110.32600000000002H1001.998732825364L1007.0387328253639 120.50600000000003L1012.0787328253639 110.32600000000002ZM1028.9587328253638 130.026Q1028.9587328253638 131.086 1028.558732825364 132.026T1027.4587328253638 133.666T1025.818732825364 134.76600000000002T1023.8187328253639 135.166H1022.4187328253639Q1021.3587328253639 135.166 1020.4187328253639 134.76600000000002T1018.7787328253639 133.666T1017.6687328253639 132.026Q1017.2687328253639 131.086 1017.2687328253639 130.026V122.13600000000002Q1017.2687328253639 121.07600000000002 1017.6687328253639 120.13600000000002Q1018.0787328253639 119.19600000000003 1018.7787328253639 118.49600000000004Q1019.478732825364 117.78600000000006 1020.4187328253639 117.38600000000002T1022.4187328253639 116.98600000000005H1023.8187328253639Q1024.8787328253638 116.98600000000005 1025.818732825364 117.38600000000002T1027.4587328253638 118.49600000000004Q1028.1587328253638 119.19600000000003 1028.558732825364 120.13600000000002T1028.9587328253638 122.13600000000002ZM1026.8587328253639 130.14600000000002V122.01600000000002Q1026.8587328253639 121.37600000000003 1026.6187328253638 120.82600000000002Q1026.3787328253638 120.26600000000002 1025.968732825364 119.856T1025.008732825364 119.20600000000002Q1024.448732825364 118.96600000000001 1023.8187328253639 118.96600000000001H1022.4187328253639Q1021.7787328253639 118.96600000000001 1021.228732825364 119.20600000000002Q1020.6687328253639 119.44600000000003 1020.258732825364 119.856T1019.6087328253639 120.82600000000002Q1019.3687328253638 121.37600000000003 1019.3687328253638 122.01600000000002V130.14600000000002Q1019.3687328253638 130.776 1019.6087328253639 131.336Q1019.8487328253639 131.88600000000002 1020.258732825364 132.296T1021.228732825364 132.94599999999997Q1021.7787328253639 133.18599999999998 1022.4187328253639 133.18599999999998H1023.8187328253639Q1024.448732825364 133.18599999999998 1025.008732825364 132.94599999999997Q1025.558732825364 132.70599999999996 1025.968732825364 132.296T1026.6187328253638 131.336Q1026.8587328253639 130.776 1026.8587328253639 130.14600000000002M1044.8587328253639 134.82600000000002H1044.1487328253638L1042.988732825364 133.05600000000004Q1042.2687328253637 134.02600000000007 1041.1987328253638 134.59600000000006Q1040.1187328253638 135.16600000000005 1038.8387328253639 135.16600000000005H1038.308732825364Q1037.2487328253637 135.16600000000005 1036.308732825364 134.76600000000008T1034.6687328253638 133.66600000000005T1033.568732825364 132.02600000000007T1033.1687328253638 130.02600000000007V117.32600000000008H1035.268732825364V130.14600000000007Q1035.268732825364 130.77600000000007 1035.508732825364 131.33600000000007Q1035.748732825364 131.88600000000008 1036.1587328253638 132.29600000000005T1037.1187328253638 132.94600000000003Q1037.6787328253638 133.18600000000004 1038.308732825364 133.18600000000004H1039.7087328253638Q1040.3387328253639 133.18600000000004 1040.8987328253638 132.94600000000003Q1041.4487328253638 132.70600000000002 1041.8587328253639 132.29600000000005T1042.5087328253637 131.33600000000007Q1042.7487328253637 130.77600000000007 1042.7487328253637 130.14600000000007V117.32600000000008H1044.8587328253639ZM1056.298732825364 119.32600000000002H1054.1887328253638Q1053.558732825364 119.32600000000002 1053.008732825364 119.56600000000003Q1052.4487328253638 119.80600000000004 1052.0387328253637 120.21600000000001T1051.3887328253638 121.18600000000004Q1051.1487328253638 121.73600000000005 1051.1487328253638 122.36600000000004V134.82600000000002H1049.048732825364V117.32600000000002H1049.7487328253637L1050.8987328253638 119.106Q1051.6087328253639 118.13599999999997 1052.6987328253638 117.55599999999998Q1053.7787328253637 116.98599999999999 1055.068732825364 116.98599999999999H1056.298732825364ZM1081.288732825364 128.416V129.156Q1081.288732825364 130.406 1080.788732825364 131.49599999999998Q1080.278732825364 132.58599999999996 1079.4387328253638 133.406Q1078.5887328253639 134.226 1077.4687328253638 134.69600000000003T1075.0987328253639 135.16600000000005H1073.3387328253639Q1072.0987328253639 135.16600000000005 1070.9787328253637 134.69600000000003T1069.0087328253637 133.406Q1068.1687328253638 132.586 1067.6587328253638 131.49599999999998Q1067.1587328253638 130.406 1067.1587328253638 129.156V128.176L1069.3587328253639 127.82599999999996V129.15599999999995Q1069.3587328253639 129.97599999999994 1069.6987328253638 130.68599999999992Q1070.0287328253637 131.3959999999999 1070.5887328253636 131.93599999999992Q1071.1587328253636 132.4659999999999 1071.8987328253638 132.7759999999999T1073.4587328253638 133.0859999999999H1074.9987328253637Q1075.8187328253637 133.0859999999999 1076.5587328253637 132.7759999999999Q1077.2887328253637 132.4659999999999 1077.8587328253639 131.93599999999992Q1078.4187328253638 131.3959999999999 1078.7487328253637 130.68599999999992Q1079.0887328253636 129.97599999999994 1079.0887328253636 129.15599999999995V128.41599999999994Q1079.0887328253636 127.15599999999995 1078.5887328253636 126.31599999999992Q1078.0987328253636 125.47599999999994 1077.2687328253637 124.8959999999999Q1076.4487328253638 124.30599999999993 1075.4187328253638 123.8959999999999T1073.2887328253637 123.07599999999991Q1072.1987328253638 122.65599999999989 1071.1687328253638 122.16599999999988Q1070.1287328253636 121.66599999999988 1069.3087328253637 120.92599999999987T1067.9987328253637 119.10599999999988Q1067.4987328253637 118.0259999999999 1067.4987328253637 116.4559999999999V115.99599999999992Q1067.4987328253637 114.74599999999992 1067.9687328253638 113.65599999999995Q1068.4387328253638 112.55599999999993 1069.2587328253637 111.73599999999993T1071.1787328253638 110.44599999999991T1073.5287328253637 109.97599999999989H1075.0987328253636Q1076.3487328253636 109.97599999999989 1077.4487328253638 110.44599999999991Q1078.5387328253637 110.91599999999994 1079.3587328253639 111.73599999999993T1080.6487328253638 113.65599999999995Q1081.1187328253638 114.74599999999992 1081.1187328253638 115.99599999999992V116.62599999999992L1078.9187328253638 116.98599999999993V115.99599999999992Q1078.9187328253638 115.17599999999993 1078.6087328253639 114.46599999999995T1077.768732825364 113.22599999999994T1076.528732825364 112.38599999999997Q1075.818732825364 112.08599999999996 1074.998732825364 112.08599999999996H1073.6287328253638Q1072.808732825364 112.08599999999996 1072.1087328253639 112.38599999999997Q1071.3987328253638 112.69599999999997 1070.8587328253639 113.22599999999994T1070.008732825364 114.46599999999995T1069.698732825364 115.99599999999992V116.4559999999999Q1069.698732825364 117.63599999999991 1070.198732825364 118.43599999999992Q1070.698732825364 119.24599999999992 1071.518732825364 119.81599999999992T1073.3687328253638 120.80599999999993T1075.498732825364 121.66599999999994Q1076.5887328253639 122.09599999999995 1077.6287328253638 122.61599999999993Q1078.6587328253638 123.13599999999991 1079.478732825364 123.8959999999999T1080.798732825364 125.75599999999991Q1081.288732825364 126.84599999999989 1081.288732825364 128.41599999999994M1096.998732825364 130.02599999999995Q1096.998732825364 131.08599999999996 1096.5987328253639 132.02599999999995T1095.498732825364 133.66599999999994T1093.8587328253639 134.76599999999996T1091.8587328253639 135.16599999999994H1090.458732825364Q1089.3987328253638 135.16599999999994 1088.458732825364 134.76599999999996T1086.818732825364 133.66599999999994T1085.718732825364 132.02599999999995Q1085.308732825364 131.08599999999996 1085.308732825364 130.02599999999995V122.13599999999997Q1085.308732825364 121.07599999999996 1085.718732825364 120.13599999999997Q1086.1187328253638 119.19599999999997 1086.818732825364 118.49599999999998Q1087.518732825364 117.786 1088.458732825364 117.38599999999997T1090.458732825364 116.98599999999999H1091.8587328253639Q1092.9187328253638 116.98599999999999 1093.8587328253639 117.38599999999997T1095.498732825364 118.49599999999998Q1096.198732825364 119.19599999999997 1096.5987328253639 120.13599999999997T1096.998732825364 122.13599999999997V122.83599999999996L1094.8987328253638 123.17599999999993V122.0159999999999Q1094.8987328253638 121.37599999999992 1094.6587328253638 120.82599999999991Q1094.4187328253638 120.2659999999999 1094.008732825364 119.85599999999988T1093.048732825364 119.2059999999999Q1092.488732825364 118.9659999999999 1091.8587328253639 118.9659999999999H1090.458732825364Q1089.8287328253639 118.9659999999999 1089.268732825364 119.2059999999999Q1088.718732825364 119.44599999999991 1088.308732825364 119.85599999999988Q1087.888732825364 120.2659999999999 1087.658732825364 120.82599999999991Q1087.418732825364 121.37599999999992 1087.418732825364 122.0159999999999V130.1459999999999Q1087.418732825364 130.7759999999999 1087.658732825364 131.3359999999999Q1087.888732825364 131.8859999999999 1088.308732825364 132.29599999999988Q1088.718732825364 132.7059999999999 1089.268732825364 132.94599999999986Q1089.8287328253639 133.18599999999986 1090.458732825364 133.18599999999986H1091.8587328253639Q1092.488732825364 133.18599999999986 1093.048732825364 132.94599999999986Q1093.5987328253639 132.70599999999985 1094.008732825364 132.29599999999988T1094.6587328253638 131.3359999999999Q1094.8987328253638 130.7759999999999 1094.8987328253638 130.1459999999999V128.98599999999988L1096.998732825364 129.32599999999985ZM1108.448732825364 119.32599999999996H1106.3487328253639Q1105.718732825364 119.32599999999996 1105.1587328253638 119.56599999999997Q1104.6087328253639 119.80599999999998 1104.198732825364 120.21599999999995T1103.548732825364 121.18599999999998Q1103.308732825364 121.73599999999999 1103.308732825364 122.36599999999999V134.82599999999996H1101.2087328253638V117.32599999999996H1101.9087328253638L1103.048732825364 119.10599999999994Q1103.768732825364 118.13599999999991 1104.8587328253639 117.55599999999993Q1105.9387328253638 116.98599999999993 1107.218732825364 116.98599999999993H1108.448732825364ZM1122.9587328253638 134.82599999999996H1122.258732825364L1121.0887328253639 133.08599999999996Q1120.3787328253638 134.02599999999995 1119.298732825364 134.59599999999995T1116.9387328253638 135.16599999999994H1116.4087328253638Q1115.3487328253639 135.16599999999994 1114.4087328253638 134.76599999999996T1112.768732825364 133.66599999999994T1111.6687328253638 132.02599999999995T1111.268732825364 130.02599999999995V129.85599999999994Q1111.268732825364 128.79599999999994 1111.6687328253638 127.85599999999994T1112.768732825364 126.21599999999995T1114.4087328253638 125.11599999999993T1116.4087328253638 124.71599999999995H1120.8487328253639V122.01599999999996Q1120.8487328253639 121.37599999999998 1120.6087328253639 120.82599999999996Q1120.3787328253638 120.26599999999996 1119.968732825364 119.85599999999994T1118.9987328253637 119.20599999999996T1117.808732825364 118.96599999999995H1116.5787328253639Q1115.948732825364 118.96599999999995 1115.3887328253638 119.20599999999996Q1114.8387328253639 119.44599999999997 1114.428732825364 119.85599999999994T1113.778732825364 120.82599999999996Q1113.538732825364 121.37599999999998 1113.538732825364 122.01599999999996V122.64599999999996L1111.4387328253638 122.30599999999998V122.13599999999997Q1111.4387328253638 121.07599999999996 1111.8387328253639 120.13599999999997T1112.9387328253638 118.49599999999998Q1113.6387328253638 117.786 1114.5787328253639 117.38599999999997T1116.5787328253639 116.98599999999999H1117.808732825364Q1118.8687328253638 116.98599999999999 1119.808732825364 117.38599999999997T1121.448732825364 118.49599999999998Q1122.1487328253638 119.19599999999997 1122.548732825364 120.13599999999997Q1122.9587328253638 121.07599999999996 1122.9587328253638 122.13599999999997ZM1120.8487328253639 130.14599999999996V126.35599999999994H1116.4087328253638Q1115.778732825364 126.35599999999994 1115.218732825364 126.59599999999995Q1114.6687328253638 126.82599999999996 1114.258732825364 127.24599999999992T1113.6087328253639 128.22599999999994Q1113.3687328253638 128.77599999999995 1113.3687328253638 129.41599999999994V130.14599999999996Q1113.3687328253638 130.77599999999995 1113.6087328253639 131.33599999999996Q1113.8487328253639 131.88599999999997 1114.258732825364 132.29599999999994T1115.218732825364 132.9459999999999Q1115.778732825364 133.18599999999992 1116.4087328253638 133.18599999999992H1117.808732825364Q1118.4387328253638 133.18599999999992 1118.9987328253637 132.9459999999999T1119.968732825364 132.29599999999994T1120.6087328253639 131.33599999999996Q1120.8487328253639 130.77599999999995 1120.8487328253639 130.14599999999996M1138.8487328253639 130.03599999999994Q1138.8487328253639 131.09599999999995 1138.448732825364 132.03599999999994T1137.3487328253639 133.67599999999993T1135.7087328253638 134.77599999999995T1133.7087328253638 135.17599999999993H1133.178732825364Q1131.998732825364 135.17599999999993 1130.988732825364 134.7059999999999Q1129.9787328253637 134.22599999999989 1129.258732825364 133.36599999999993V141.846H1127.1587328253638V117.33600000000001H1127.8587328253639L1129.008732825364 119.11599999999999Q1129.718732825364 118.14599999999996 1130.8087328253637 117.56599999999997Q1131.8887328253638 116.99599999999998 1133.1787328253638 116.99599999999998H1133.7087328253638Q1134.7687328253637 116.99599999999998 1135.7087328253638 117.39599999999996T1137.3487328253636 118.50599999999997Q1138.048732825364 119.20599999999996 1138.4487328253638 120.14599999999996T1138.8487328253636 122.14599999999996ZM1136.7487328253637 130.15599999999995V122.02599999999995Q1136.7487328253637 121.38599999999997 1136.508732825364 120.83599999999996Q1136.2687328253637 120.27599999999995 1135.8587328253639 119.86599999999993T1134.8887328253638 119.21599999999995Q1134.3387328253639 118.97599999999994 1133.7087328253638 118.97599999999994H1132.298732825364Q1131.6687328253638 118.97599999999994 1131.118732825364 119.21599999999995Q1130.5587328253641 119.45599999999996 1130.1487328253638 119.86599999999993T1129.498732825364 120.83599999999996Q1129.258732825364 121.38599999999997 1129.258732825364 122.02599999999995V130.15599999999995Q1129.258732825364 130.78599999999994 1129.498732825364 131.34599999999995Q1129.738732825364 131.89599999999996 1130.1487328253638 132.30599999999993T1131.118732825364 132.9559999999999Q1131.6687328253638 133.1959999999999 1132.298732825364 133.1959999999999H1133.7087328253638Q1134.3387328253639 133.1959999999999 1134.8887328253638 132.9559999999999Q1135.4487328253638 132.7159999999999 1135.8587328253639 132.30599999999993T1136.508732825364 131.34599999999995Q1136.7487328253637 130.78599999999994 1136.7487328253637 130.15599999999995M1146.0187328253637 132.19599999999997L1144.2687328253637 139.736H1143.3887328253638V132.19599999999997ZM1172.7487328253637 129.15599999999995Q1172.7487328253637 130.40599999999995 1172.278732825364 131.49599999999992T1170.988732825364 133.40599999999995T1169.068732825364 134.69599999999997Q1167.9787328253637 135.166 1166.7287328253637 135.166H1164.988732825364Q1163.738732825364 135.166 1162.6387328253638 134.69599999999997T1160.7087328253638 133.40599999999995Q1159.8887328253638 132.58599999999996 1159.4187328253638 131.49599999999992T1158.948732825364 129.15599999999995V115.99599999999992Q1158.948732825364 114.74599999999992 1159.4187328253638 113.65599999999995Q1159.888732825364 112.55599999999993 1160.7087328253638 111.73599999999993Q1161.538732825364 110.91599999999994 1162.6387328253638 110.44599999999991T1164.988732825364 109.97599999999989H1166.7287328253637Q1167.9787328253637 109.97599999999989 1169.068732825364 110.44599999999991Q1170.1687328253638 110.91599999999994 1170.988732825364 111.73599999999993T1172.278732825364 113.65599999999995Q1172.7487328253637 114.74599999999992 1172.7487328253637 115.99599999999992ZM1170.5387328253637 129.15599999999995V115.99599999999992Q1170.5387328253637 115.17599999999993 1170.2287328253637 114.46599999999995Q1169.928732825364 113.75599999999997 1169.3987328253638 113.22599999999994T1168.1587328253638 112.38599999999997Q1167.4487328253638 112.08599999999996 1166.6287328253638 112.08599999999996H1165.0887328253639Q1164.2687328253637 112.08599999999996 1163.558732825364 112.38599999999997Q1162.8487328253639 112.69599999999997 1162.308732825364 113.22599999999994T1161.468732825364 114.46599999999995Q1161.158732825364 115.17599999999993 1161.158732825364 115.99599999999992V129.15599999999995Q1161.158732825364 129.97599999999994 1161.468732825364 130.68599999999992Q1161.7687328253637 131.3959999999999 1162.308732825364 131.93599999999992Q1162.8487328253639 132.4659999999999 1163.558732825364 132.7759999999999T1165.0887328253639 133.0859999999999H1166.6287328253638Q1167.448732825364 133.0859999999999 1168.1587328253638 132.7759999999999T1169.3987328253638 131.93599999999992Q1169.9287328253638 131.3959999999999 1170.2287328253637 130.68599999999992Q1170.5387328253637 129.97599999999994 1170.5387328253637 129.15599999999995M1188.9987328253637 134.82599999999996H1188.2987328253637L1187.1387328253638 133.05599999999998Q1186.4187328253638 134.026 1185.3387328253639 134.596T1182.9787328253637 135.166H1182.4487328253638Q1181.3887328253638 135.166 1180.4487328253638 134.76600000000002T1178.808732825364 133.666T1177.7087328253638 132.026T1177.308732825364 130.026V117.32600000000002H1179.4087328253638V130.14600000000002Q1179.4087328253638 130.776 1179.6487328253638 131.336Q1179.8887328253638 131.88600000000002 1180.298732825364 132.296T1181.268732825364 132.94599999999997Q1181.818732825364 133.18599999999998 1182.4487328253638 133.18599999999998H1183.8487328253639Q1184.4887328253637 133.18599999999998 1185.038732825364 132.94599999999997Q1185.5987328253639 132.70599999999996 1186.008732825364 132.296T1186.6587328253638 131.336Q1186.8987328253638 130.776 1186.8987328253638 130.14600000000002V117.32600000000002H1188.998732825364ZM1200.4487328253638 119.32599999999996H1198.3487328253639Q1197.7087328253638 119.32599999999996 1197.1587328253638 119.56599999999997Q1196.5987328253639 119.80599999999998 1196.1887328253638 120.21599999999995T1195.5387328253637 121.18599999999998Q1195.2987328253637 121.73599999999999 1195.2987328253637 122.36599999999999V134.82599999999996H1193.1987328253638V117.32599999999996H1193.8987328253638L1195.0487328253637 119.10599999999994Q1195.7687328253637 118.13599999999991 1196.8487328253636 117.55599999999993Q1197.9387328253638 116.98599999999993 1199.2187328253638 116.98599999999993H1200.4487328253638ZM1225.4287328253638 128.41599999999994V129.15599999999995Q1225.4287328253638 130.40599999999995 1224.9287328253638 131.49599999999992T1223.5787328253639 133.40599999999995T1221.6087328253639 134.69599999999997T1219.2487328253637 135.166H1217.4887328253637Q1216.2387328253637 135.166 1215.1187328253638 134.69599999999997T1213.1487328253638 133.40599999999995Q1212.3087328253637 132.58599999999996 1211.7987328253637 131.49599999999992Q1211.2987328253637 130.40599999999995 1211.2987328253637 129.15599999999995V128.17599999999993L1213.5087328253637 127.82599999999991V129.1559999999999Q1213.5087328253637 129.97599999999989 1213.8387328253639 130.68599999999986T1214.7387328253637 131.93599999999986Q1215.2987328253637 132.46599999999984 1216.0387328253637 132.77599999999984Q1216.7887328253637 133.08599999999984 1217.6087328253639 133.08599999999984H1219.1387328253638Q1219.9687328253638 133.08599999999984 1220.6987328253638 132.77599999999984T1221.9987328253637 131.93599999999986Q1222.5587328253637 131.39599999999984 1222.8987328253636 130.68599999999986Q1223.2287328253637 129.97599999999989 1223.2287328253637 129.1559999999999V128.41599999999988Q1223.2287328253637 127.15599999999989 1222.7287328253637 126.31599999999986Q1222.2387328253637 125.47599999999989 1221.4187328253638 124.89599999999984Q1220.5987328253636 124.30599999999987 1219.5587328253637 123.89599999999984Q1218.5287328253637 123.48599999999982 1217.4387328253638 123.07599999999985Q1216.3387328253636 122.65599999999984 1215.3087328253637 122.16599999999983Q1214.2687328253637 121.66599999999983 1213.4487328253638 120.92599999999982T1212.1387328253638 119.10599999999982Q1211.6387328253638 118.02599999999984 1211.6387328253638 116.45599999999985V115.99599999999987Q1211.6387328253638 114.74599999999987 1212.1087328253639 113.65599999999989Q1212.5787328253639 112.55599999999987 1213.3987328253638 111.73599999999988T1215.3287328253637 110.44599999999986Q1216.4287328253638 109.97599999999983 1217.6787328253638 109.97599999999983H1219.2487328253637Q1220.4887328253637 109.97599999999983 1221.5887328253639 110.44599999999986Q1222.6787328253638 110.91599999999988 1223.4987328253637 111.73599999999988T1224.7887328253637 113.65599999999989Q1225.2587328253637 114.74599999999987 1225.2587328253637 115.99599999999987V116.62599999999986L1223.0587328253637 116.98599999999988V115.99599999999987Q1223.0587328253637 115.17599999999987 1222.7487328253637 114.4659999999999T1221.9087328253638 113.22599999999989T1220.6687328253638 112.38599999999991Q1219.9687328253638 112.0859999999999 1219.1387328253638 112.0859999999999H1217.7787328253637Q1216.9587328253638 112.0859999999999 1216.2487328253637 112.38599999999991Q1215.5387328253637 112.69599999999991 1214.9987328253637 113.22599999999989T1214.1487328253638 114.4659999999999Q1213.8487328253639 115.17599999999987 1213.8487328253639 115.99599999999987V116.45599999999985Q1213.8487328253639 117.63599999999985 1214.3387328253639 118.43599999999986Q1214.8387328253639 119.24599999999987 1215.6587328253638 119.81599999999986T1217.508732825364 120.80599999999987L1219.6387328253638 121.66599999999988Q1220.728732825364 122.09599999999989 1221.768732825364 122.61599999999987Q1222.798732825364 123.13599999999985 1223.6187328253638 123.89599999999984T1224.938732825364 125.75599999999986Q1225.428732825364 126.84599999999983 1225.428732825364 128.41599999999988M1241.158732825364 130.0259999999999Q1241.158732825364 131.0859999999999 1240.748732825364 132.0259999999999Q1240.348732825364 132.9659999999999 1239.648732825364 133.66599999999988T1238.008732825364 134.7659999999999T1236.008732825364 135.16599999999988H1234.608732825364Q1233.5487328253641 135.16599999999988 1232.608732825364 134.7659999999999T1230.968732825364 133.66599999999988T1229.868732825364 132.0259999999999T1229.468732825364 130.0259999999999V122.13599999999991Q1229.468732825364 121.07599999999991 1229.868732825364 120.13599999999991T1230.968732825364 118.49599999999992Q1231.668732825364 117.78599999999994 1232.608732825364 117.38599999999991T1234.608732825364 116.98599999999993H1236.008732825364Q1237.068732825364 116.98599999999993 1238.008732825364 117.38599999999991T1239.648732825364 118.49599999999992Q1240.348732825364 119.19599999999991 1240.748732825364 120.13599999999991Q1241.158732825364 121.07599999999991 1241.158732825364 122.13599999999991ZM1239.048732825364 130.1459999999999V122.0159999999999Q1239.048732825364 121.37599999999992 1238.818732825364 120.82599999999991Q1238.5787328253639 120.2659999999999 1238.168732825364 119.85599999999988T1237.198732825364 119.2059999999999T1236.008732825364 118.9659999999999H1234.6087328253639Q1233.978732825364 118.9659999999999 1233.4187328253638 119.2059999999999Q1232.8687328253638 119.44599999999991 1232.4587328253638 119.85599999999988T1231.808732825364 120.82599999999991Q1231.568732825364 121.37599999999992 1231.568732825364 122.0159999999999V130.1459999999999Q1231.568732825364 130.7759999999999 1231.808732825364 131.3359999999999Q1232.048732825364 131.8859999999999 1232.4587328253638 132.29599999999988T1233.4187328253638 132.94599999999986Q1233.9787328253637 133.18599999999986 1234.6087328253639 133.18599999999986H1236.008732825364Q1236.6387328253638 133.18599999999986 1237.198732825364 132.94599999999986T1238.168732825364 132.29599999999988T1238.818732825364 131.3359999999999Q1239.048732825364 130.7759999999999 1239.048732825364 130.1459999999999M1248.158732825364 134.8259999999999H1246.058732825364V110.32599999999991H1248.158732825364ZM1264.758732825364 134.8259999999999H1264.058732825364L1262.888732825364 133.05599999999993Q1262.178732825364 134.02599999999995 1261.098732825364 134.59599999999995T1258.738732825364 135.16599999999994H1258.208732825364Q1257.148732825364 135.16599999999994 1256.208732825364 134.76599999999996T1254.5687328253641 133.66599999999994T1253.468732825364 132.02599999999995T1253.0687328253641 130.02599999999995V117.32599999999996H1255.168732825364V130.14599999999996Q1255.168732825364 130.77599999999995 1255.408732825364 131.33599999999996Q1255.648732825364 131.88599999999997 1256.0587328253641 132.29599999999994T1257.0187328253642 132.9459999999999Q1257.578732825364 133.18599999999992 1258.2087328253642 133.18599999999992H1259.608732825364Q1260.2487328253642 133.18599999999992 1260.7987328253641 132.9459999999999Q1261.358732825364 132.7059999999999 1261.7687328253642 132.29599999999994T1262.4187328253643 131.33599999999996Q1262.6587328253643 130.77599999999995 1262.6587328253643 130.14599999999996V117.32599999999996H1264.7587328253642ZM1277.248732825364 134.8259999999999H1275.338732825364Q1274.378732825364 134.8259999999999 1273.5287328253642 134.4659999999999Q1272.688732825364 134.11599999999987 1272.0587328253641 133.47599999999989Q1271.438732825364 132.8459999999999 1271.0687328253641 132.00599999999986Q1270.698732825364 131.17599999999987 1270.698732825364 130.21599999999984V119.32599999999985H1267.5587328253641V117.32599999999985H1270.698732825364V113.12599999999986L1272.8087328253641 112.78599999999989V117.32599999999991H1277.2487328253642V119.32599999999991H1272.8087328253641V130.31599999999992Q1272.8087328253641 130.8459999999999 1272.9987328253642 131.29599999999994Q1273.1987328253642 131.75599999999991 1273.5387328253641 132.09599999999995T1274.348732825364 132.63599999999997Q1274.8087328253641 132.82599999999996 1275.338732825364 132.82599999999996H1277.248732825364ZM1284.098732825364 113.12599999999992H1281.648732825364V110.32599999999991H1284.098732825364ZM1283.928732825364 134.8259999999999H1281.8187328253641V117.32599999999991H1283.928732825364ZM1300.5087328253642 130.0259999999999Q1300.5087328253642 131.0859999999999 1300.108732825364 132.0259999999999T1299.0087328253642 133.66599999999988T1297.368732825364 134.7659999999999T1295.368732825364 135.16599999999988H1293.9587328253642Q1292.8987328253643 135.16599999999988 1291.9587328253642 134.7659999999999T1290.3187328253641 133.66599999999988T1289.2187328253642 132.0259999999999T1288.8187328253641 130.0259999999999V122.13599999999991Q1288.8187328253641 121.07599999999991 1289.2187328253642 120.13599999999991T1290.3187328253641 118.49599999999992Q1291.0187328253642 117.78599999999994 1291.9587328253642 117.38599999999991T1293.9587328253642 116.98599999999993H1295.368732825364Q1296.428732825364 116.98599999999993 1297.368732825364 117.38599999999991T1299.0087328253642 118.49599999999992Q1299.7087328253642 119.19599999999991 1300.108732825364 120.13599999999991T1300.5087328253642 122.13599999999991ZM1298.408732825364 130.1459999999999V122.0159999999999Q1298.408732825364 121.37599999999992 1298.168732825364 120.82599999999991Q1297.928732825364 120.2659999999999 1297.5187328253642 119.85599999999988T1296.5487328253641 119.2059999999999Q1295.9987328253642 118.9659999999999 1295.368732825364 118.9659999999999H1293.9587328253642Q1293.328732825364 118.9659999999999 1292.7787328253642 119.2059999999999Q1292.2187328253642 119.44599999999991 1291.8087328253641 119.85599999999988T1291.1587328253643 120.82599999999991Q1290.9187328253643 121.37599999999992 1290.9187328253643 122.0159999999999V130.1459999999999Q1290.9187328253643 130.7759999999999 1291.1587328253643 131.3359999999999Q1291.3987328253643 131.8859999999999 1291.8087328253641 132.29599999999988T1292.7787328253642 132.94599999999986Q1293.328732825364 133.18599999999986 1293.9587328253642 133.18599999999986H1295.368732825364Q1295.9987328253642 133.18599999999986 1296.5487328253641 132.94599999999986Q1297.108732825364 132.70599999999985 1297.5187328253642 132.29599999999988T1298.168732825364 131.3359999999999Q1298.408732825364 130.7759999999999 1298.408732825364 130.1459999999999M1316.398732825364 134.8259999999999H1314.2987328253641V122.0159999999999Q1314.2987328253641 121.37599999999992 1314.0587328253641 120.82599999999991Q1313.8187328253641 120.2659999999999 1313.408732825364 119.85599999999988T1312.448732825364 119.2059999999999Q1311.888732825364 118.9659999999999 1311.258732825364 118.9659999999999H1309.858732825364Q1309.228732825364 118.9659999999999 1308.668732825364 119.2059999999999T1307.698732825364 119.85599999999988T1307.058732825364 120.82599999999991Q1306.818732825364 121.37599999999992 1306.818732825364 122.0159999999999V134.8259999999999H1304.708732825364V117.32599999999991H1305.408732825364L1306.558732825364 119.10599999999988Q1307.278732825364 118.13599999999985 1308.3587328253639 117.55599999999987Q1309.448732825364 116.98599999999988 1310.728732825364 116.98599999999988H1311.258732825364Q1312.318732825364 116.98599999999988 1313.258732825364 117.38599999999985T1314.8987328253638 118.49599999999987Q1315.5987328253639 119.19599999999986 1315.998732825364 120.13599999999985T1316.3987328253638 122.13599999999985ZM1323.588732825364 134.8259999999999H1320.9587328253642V132.1959999999999H1323.588732825364Z "></path><path fill="#0a0a0a" stroke="#797979" stroke-width="2" d="M811.4987328253637 126.036H997.5587328253638 "></path></g><rect width="712" height="144" x="647.6665465100446" y="0" id="space-saver" fill="transparent" stroke="transparent"></rect></g></svg>