<svg xmlns="http://www.w3.org/2000/svg" xml:space="preserve" width="2000" height="1500" viewBox="0 0 2000 1500" data-version="1" data-id="lg_frkCHgkHDDUM6RRQSE" x="0" y="0"><rect width="2000" height="1500" id="background" stroke="transparent" fill="#797979"></rect><g id="outer-wrapper" data-padding="20" transform="matrix(2.085264830097437,0,0,2.085264830097437,-1085.264830097437,-813.9486225730777)"><g id="inner-wrapper" transform="matrix(0.9719101123595506,0,0,0.9719101123595506,10,2.0224719101123583)"><path fill="#0a0a0a" d="M731.1787328253638 697.4843757225434A65.007 65.007 0 1 0 731.1787328253638 827.4983757225434A65.007 65.007 0 1 0 731.1787328253638 697.4843757225434 "></path><rect width="575" height="113" x="323.0787328253636" y="305.9413757225433" fill="none" rx="0" ry="0" transform="translate(480.52 401.1)"></rect><path fill="#0a0a0a" stroke="#0a0a0a" stroke-width="1.545" d="M844.1687328253638 796.2213757225434H812.5687328253638Q807.9687328253638 796.2213757225434 807.9687328253638 791.6213757225433V779.9213757225434Q807.9687328253638 775.3213757225433 812.5687328253638 775.3213757225433H839.4687328253638Q840.2687328253638 775.3213757225433 840.6687328253638 774.7213757225434T841.0687328253638 773.4213757225433Q841.0687328253638 771.1213757225432 839.3687328253638 771.0213757225433L824.3687328253638 768.9213757225433Q819.3687328253638 768.1213757225432 815.6687328253638 766.2713757225433T809.9687328253638 760.8213757225433T807.9687328253638 751.3213757225433V740.8213757225433Q807.9687328253638 731.8213757225433 813.6687328253638 727.0213757225433T829.6687328253638 722.2213757225434H857.6687328253638Q862.2687328253638 722.2213757225434 862.2687328253638 726.8213757225433V738.7213757225434Q862.2687328253638 743.3213757225433 857.6687328253638 743.3213757225433H834.3687328253638Q833.5687328253638 743.3213757225433 833.1187328253638 743.9213757225434T832.6687328253638 745.3213757225433Q832.6687328253638 747.3213757225433 834.4687328253638 747.5213757225433L849.3687328253638 749.5213757225433Q854.3687328253638 750.2213757225434 858.0687328253638 752.1213757225433T863.8187328253638 757.6213757225433T865.8687328253638 767.1213757225433V777.6213757225433Q865.8687328253638 786.6213757225433 860.1187328253638 791.4213757225434T844.1687328253638 796.2213757225434ZM812.5687328253638 795.2213757225434H844.1687328253638Q853.8687328253637 795.2213757225434 859.3687328253637 790.6713757225434T864.8687328253637 777.6213757225433V767.1213757225433Q864.8687328253637 761.5213757225433 862.9187328253638 758.1213757225433T857.4687328253638 752.9713757225434T849.2687328253638 750.5213757225433L834.3687328253638 748.5213757225433Q831.6687328253638 748.2213757225434 831.6687328253638 745.3213757225434Q831.6687328253638 742.3213757225434 834.3687328253638 742.3213757225434H857.6687328253638Q861.2687328253638 742.3213757225434 861.2687328253638 738.7213757225434V726.8213757225434Q861.2687328253638 723.2213757225434 857.6687328253638 723.2213757225434H829.6687328253638Q819.9687328253638 723.2213757225434 814.4687328253638 727.7213757225434T808.9687328253638 740.8213757225434V751.3213757225434Q808.9687328253638 759.7213757225434 813.2187328253638 763.2713757225433T824.4687328253638 767.9213757225434L839.4687328253638 770.0213757225433Q840.7687328253638 770.1213757225435 841.4187328253638 770.9213757225434T842.0687328253638 773.4213757225434Q842.0687328253638 774.6213757225433 841.4187328253638 775.4713757225434T839.4687328253638 776.3213757225434H812.5687328253638Q808.9687328253638 776.3213757225434 808.9687328253638 779.9213757225434V791.6213757225435Q808.9687328253638 795.2213757225434 812.5687328253638 795.2213757225434ZM852.2687328253637 732.2213757225434V733.2213757225434H830.0687328253638Q825.8687328253638 733.2213757225434 823.3687328253638 735.5213757225433T820.8687328253638 741.3213757225434V749.5213757225433Q820.8687328253638 753.0213757225433 822.2687328253638 754.3713757225435T825.9687328253638 756.2213757225434L847.0687328253638 760.5213757225434Q850.0687328253638 761.1213757225435 852.0187328253637 763.0713757225435T853.9687328253638 770.3213757225435V776.1213757225435Q853.9687328253638 780.5213757225434 850.9687328253638 783.3713757225435T842.8687328253637 786.2213757225435H817.9687328253638V785.2213757225435H842.8687328253637Q847.5687328253638 785.2213757225435 850.2687328253637 782.6713757225434T852.9687328253638 776.1213757225435V770.3213757225435Q852.9687328253638 765.6213757225435 851.3187328253638 763.8713757225435T846.8687328253637 761.5213757225434L825.7687328253637 757.2213757225434Q823.1687328253638 756.7213757225434 821.5187328253637 755.1713757225434T819.8687328253637 749.5213757225434V741.3213757225435Q819.8687328253637 737.3213757225435 822.6687328253638 734.7713757225434T830.0687328253638 732.2213757225434ZM923.6687328253638 796.2213757225434H899.2687328253638Q886.0687328253639 796.2213757225434 879.8687328253638 790.9713757225434T873.6687328253638 774.8213757225434V743.7213757225434Q873.6687328253638 732.7213757225434 879.8687328253638 727.4713757225434T899.2687328253638 722.2213757225434H923.6687328253638Q928.2687328253638 722.2213757225434 928.2687328253638 726.8213757225434V738.9213757225434Q928.2687328253638 743.5213757225434 923.6687328253638 743.5213757225434H903.5687328253638Q898.4687328253638 743.5213757225434 898.4687328253638 747.5213757225434V771.3213757225435Q898.4687328253638 773.4213757225434 899.7687328253637 774.2713757225434T903.5687328253638 775.1213757225435H923.6687328253638Q928.2687328253638 775.1213757225435 928.2687328253638 779.7213757225435V791.6213757225435Q928.2687328253638 796.2213757225435 923.6687328253638 796.2213757225435ZM899.2687328253638 795.2213757225434H923.6687328253638Q927.2687328253638 795.2213757225434 927.2687328253638 791.6213757225433V779.7213757225434Q927.2687328253638 776.1213757225433 923.6687328253638 776.1213757225433H903.5687328253638Q897.4687328253638 776.1213757225433 897.4687328253638 771.3213757225433V747.5213757225433Q897.4687328253638 742.5213757225433 903.5687328253638 742.5213757225433H923.6687328253638Q927.2687328253638 742.5213757225433 927.2687328253638 738.9213757225433V726.8213757225433Q927.2687328253638 723.2213757225433 923.6687328253638 723.2213757225433H899.2687328253638Q886.6687328253638 723.2213757225433 880.6687328253638 728.2213757225433T874.6687328253638 743.7213757225433V774.8213757225433Q874.6687328253638 785.2213757225433 880.6687328253638 790.2213757225433T899.2687328253638 795.2213757225433ZM918.1687328253638 785.2213757225434V786.2213757225434H901.4687328253638Q894.9687328253638 786.2213757225434 891.5187328253638 784.9213757225434T886.7687328253638 780.7713757225433T885.4687328253638 773.3213757225434V745.3213757225434Q885.4687328253638 740.5213757225433 886.8187328253639 737.6713757225434T891.6187328253638 733.5213757225434T901.4687328253639 732.2213757225434H918.1687328253638V733.2213757225434H901.4687328253639Q895.5687328253639 733.2213757225434 892.3187328253639 734.3713757225435T887.7687328253639 738.1713757225434T886.4687328253639 745.3213757225434V773.3213757225434Q886.4687328253639 777.6213757225435 887.7187328253639 780.2713757225433T892.2187328253639 784.0713757225434T901.4687328253639 785.2213757225434ZM957.5687328253638 796.2213757225434H942.1687328253638Q937.5687328253638 796.2213757225434 937.5687328253638 791.6213757225433V726.8213757225433Q937.5687328253638 722.2213757225434 942.1687328253638 722.2213757225434H975.4687328253639Q983.4687328253639 722.2213757225434 987.9687328253639 724.4713757225434T994.3187328253639 730.7213757225434T996.1687328253639 739.9213757225433V744.5213757225433Q996.1687328253639 748.2213757225434 995.2687328253639 750.9713757225434T992.2687328253639 755.4213757225433Q997.0687328253639 756.7213757225434 999.868732825364 760.5713757225433T1002.6687328253639 770.4213757225433V791.6213757225432Q1002.6687328253639 796.2213757225434 998.0687328253639 796.2213757225434H982.5687328253639Q977.9687328253639 796.2213757225434 977.9687328253639 791.6213757225432V776.3213757225433Q977.9687328253639 774.6213757225432 977.3687328253638 773.8213757225433T975.1687328253639 773.0213757225433H962.1687328253639V791.6213757225432Q962.1687328253639 796.2213757225434 957.5687328253639 796.2213757225434ZM942.1687328253638 795.2213757225434H957.5687328253638Q961.1687328253638 795.2213757225434 961.1687328253638 791.6213757225433V772.0213757225433H975.1687328253638Q977.2687328253638 772.0213757225433 978.1187328253638 773.0213757225433T978.9687328253639 776.3213757225433V791.6213757225433Q978.9687328253639 795.2213757225434 982.5687328253639 795.2213757225434H998.0687328253639Q1001.6687328253639 795.2213757225434 1001.6687328253639 791.6213757225433V770.4213757225434Q1001.6687328253639 764.1213757225433 998.3687328253638 760.3213757225433T989.5687328253639 755.9213757225434Q992.7687328253638 754.5213757225433 993.9687328253639 751.6213757225433T995.1687328253638 744.5213757225433V739.9213757225433Q995.1687328253638 734.9213757225433 993.3687328253638 731.1713757225433T987.2687328253638 725.3213757225433T975.4687328253638 723.2213757225433H942.1687328253638Q938.5687328253638 723.2213757225433 938.5687328253638 726.8213757225433V791.6213757225432Q938.5687328253638 795.2213757225434 942.1687328253638 795.2213757225434ZM990.7687328253638 786.2213757225434H989.7687328253638V772.8213757225434Q989.7687328253638 763.0213757225433 978.6687328253638 763.0213757225433H950.3687328253638V786.2213757225434H949.3687328253638V732.2213757225434H972.1687328253638Q978.0687328253638 732.2213757225434 980.8187328253638 735.4213757225434T983.5687328253638 743.6213757225433V750.5213757225433Q983.5687328253638 755.0213757225433 982.3687328253638 758.0213757225433T977.5687328253638 762.1213757225433H978.6687328253638Q990.7687328253638 762.1213757225433 990.7687328253638 772.8213757225433ZM950.3687328253638 733.2213757225434V762.1213757225433H972.1687328253639Q978.3687328253638 762.1213757225433 980.4687328253639 759.1213757225433T982.5687328253639 750.6213757225433V743.6213757225433Q982.5687328253639 738.9213757225434 980.0187328253639 736.0713757225433T972.1687328253639 733.2213757225434ZM961.1687328253639 754.0213757225433V741.2213757225434H968.6687328253639Q971.2687328253639 741.2213757225434 972.1687328253639 742.5713757225434T973.0687328253639 745.9213757225434V749.3213757225434Q973.0687328253639 751.3213757225434 972.1687328253639 752.6713757225434T968.6687328253639 754.0213757225434ZM968.6687328253639 742.2213757225434H962.1687328253639V753.0213757225433H968.6687328253639Q970.7687328253639 753.0213757225433 971.4187328253639 751.9713757225434T972.0687328253639 749.3213757225434V745.9213757225434Q972.0687328253639 744.3213757225434 971.4187328253639 743.2713757225434T968.6687328253639 742.2213757225434ZM1034.2687328253637 778.6213757225433V791.6213757225433Q1034.2687328253637 796.2213757225434 1029.6687328253638 796.2213757225434H1014.9687328253639Q1010.3687328253638 796.2213757225434 1010.3687328253638 791.6213757225433V765.2213757225434Q1010.3687328253638 762.1213757225433 1011.3187328253638 758.1713757225434T1014.3687328253638 748.8213757225433L1023.0687328253638 726.2213757225434Q1024.3687328253638 722.2213757225434 1029.068732825364 722.2213757225434H1055.9687328253638Q1060.568732825364 722.2213757225434 1061.8687328253636 726.1213757225432L1070.568732825364 748.8213757225433Q1072.6687328253638 754.2213757225433 1073.6187328253636 758.1713757225433T1074.568732825364 765.2213757225434V791.6213757225432Q1074.568732825364 796.2213757225434 1069.9687328253638 796.2213757225434H1054.8687328253636Q1049.9687328253638 796.2213757225434 1049.9687328253638 791.6213757225432V778.6213757225432ZM1033.2687328253637 791.6213757225433V777.6213757225433H1050.968732825364V791.6213757225433Q1050.968732825364 795.2213757225434 1054.8687328253638 795.2213757225434H1069.968732825364Q1073.568732825364 795.2213757225434 1073.568732825364 791.6213757225433V765.2213757225434Q1073.568732825364 762.2213757225434 1072.6187328253638 758.3213757225434T1069.6687328253638 749.2213757225434L1060.968732825364 726.5213757225433Q1059.8687328253638 723.2213757225434 1055.968732825364 723.2213757225434H1029.068732825364Q1025.068732825364 723.2213757225434 1023.9687328253639 726.5213757225433L1015.2687328253639 749.2213757225434Q1013.2687328253639 754.4213757225434 1012.3187328253639 758.3213757225434T1011.368732825364 765.2213757225434V791.6213757225433Q1011.368732825364 795.2213757225434 1014.968732825364 795.2213757225434H1029.6687328253638Q1033.268732825364 795.2213757225434 1033.268732825364 791.6213757225433ZM1062.968732825364 764.9213757225434V786.2213757225434H1061.968732825364V769.0213757225433H1022.9687328253639V786.2213757225434H1021.9687328253639V764.9213757225434Q1021.9687328253639 762.1213757225433 1022.4187328253638 759.7713757225433T1023.6687328253638 755.2213757225434L1030.068732825364 738.8213757225434Q1031.1687328253638 736.0213757225433 1032.568732825364 734.1213757225435T1037.3687328253638 732.2213757225434H1047.1687328253638Q1050.468732825364 732.2213757225434 1051.818732825364 734.1213757225435T1054.3687328253638 738.9213757225434L1061.2687328253637 755.2213757225434Q1062.068732825364 757.4213757225434 1062.5187328253637 759.7713757225434T1062.9687328253638 764.9213757225434ZM1022.9687328253639 764.9213757225434V768.0213757225433H1061.968732825364V764.9213757225434Q1061.968732825364 762.2213757225434 1061.568732825364 759.9213757225434T1060.3687328253638 755.6213757225433L1053.468732825364 739.3213757225433Q1052.3687328253638 736.7213757225434 1051.1687328253638 734.9713757225434T1047.1687328253638 733.2213757225434H1037.3687328253638Q1034.3687328253638 733.2213757225434 1033.1687328253638 734.9213757225433T1030.968732825364 739.2213757225434L1024.568732825364 755.6213757225432Q1023.868732825364 757.6213757225432 1023.4187328253639 759.9213757225433T1022.968732825364 764.9213757225433ZM1034.2687328253637 759.4213757225434L1038.968732825364 744.2213757225434Q1039.6687328253638 742.5213757225433 1040.8687328253638 742.5213757225433H1043.3687328253638Q1044.568732825364 742.5213757225433 1045.2687328253637 744.2213757225434L1049.9687328253638 759.4213757225434ZM1039.968732825364 744.5213757225433L1035.6687328253638 758.4213757225434H1048.568732825364L1044.2687328253637 744.5213757225433Q1044.1687328253638 744.1213757225435 1043.9687328253638 743.8213757225434T1043.3687328253636 743.5213757225433H1040.8687328253636Q1040.4687328253638 743.5213757225433 1040.2687328253637 743.8713757225435T1039.9687328253638 744.5213757225433ZM1104.968732825364 796.2213757225434H1089.468732825364Q1084.8687328253638 796.2213757225434 1084.8687328253638 791.6213757225433V726.8213757225433Q1084.8687328253638 722.2213757225434 1089.468732825364 722.2213757225434H1120.068732825364Q1129.6687328253638 722.2213757225434 1135.0187328253637 724.8213757225433T1142.5187328253637 732.0213757225433T1144.6687328253638 742.7213757225434V755.5213757225433Q1144.6687328253638 761.5213757225433 1142.5187328253637 766.1713757225433T1135.0187328253637 773.4213757225433T1120.068732825364 776.0213757225433H1109.568732825364V791.6213757225433Q1109.568732825364 796.2213757225434 1104.968732825364 796.2213757225434ZM1089.468732825364 795.2213757225434H1104.968732825364Q1108.568732825364 795.2213757225434 1108.568732825364 791.6213757225433V775.0213757225433H1120.068732825364Q1129.1687328253638 775.0213757225433 1134.318732825364 772.5713757225433T1141.568732825364 765.7213757225434T1143.6687328253638 755.5213757225433V742.7213757225434Q1143.6687328253638 736.9213757225433 1141.568732825364 732.5213757225433T1134.318732825364 725.6713757225433T1120.068732825364 723.2213757225434H1089.4687328253638Q1085.8687328253636 723.2213757225434 1085.8687328253636 726.8213757225433V791.6213757225433Q1085.8687328253636 795.2213757225434 1089.4687328253638 795.2213757225434ZM1118.6687328253638 766.5213757225433H1098.068732825364V786.2213757225434H1097.068732825364V732.2213757225434H1118.6687328253638Q1124.9687328253638 732.2213757225434 1128.2187328253638 734.0213757225433T1132.568732825364 738.8713757225435T1133.6687328253638 745.8213757225434V753.2213757225434Q1133.6687328253638 757.1213757225433 1132.568732825364 760.1213757225433T1128.2187328253638 764.8213757225433T1118.6687328253638 766.5213757225433ZM1098.068732825364 765.5213757225433H1118.6687328253638Q1124.568732825364 765.5213757225433 1127.568732825364 763.9713757225434T1131.6187328253636 759.6213757225433T1132.6687328253638 753.2213757225434V745.8213757225434Q1132.6687328253638 742.2213757225434 1131.6187328253636 739.3713757225435T1127.568732825364 734.8713757225435T1118.6687328253638 733.2213757225434H1098.068732825364ZM1108.3687328253638 757.0213757225433V741.9213757225434H1117.3687328253638Q1120.2687328253637 741.9213757225434 1121.1687328253638 743.3713757225433T1122.068732825364 746.8213757225433V752.1213757225433Q1122.068732825364 754.0213757225433 1121.1687328253638 755.5213757225433T1117.3687328253638 757.0213757225433ZM1117.3687328253638 742.9213757225434H1109.3687328253638V756.0213757225433H1117.3687328253638Q1119.6687328253638 756.0213757225433 1120.3687328253638 754.8213757225434T1121.068732825364 752.1213757225435V746.8213757225434Q1121.068732825364 745.3213757225434 1120.3687328253638 744.1213757225435T1117.3687328253638 742.9213757225434ZM1198.6687328253638 796.2213757225434H1156.068732825364Q1151.4687328253638 796.2213757225434 1151.4687328253638 791.6213757225433V779.7213757225434Q1151.4687328253638 775.1213757225433 1156.068732825364 775.1213757225433H1164.9687328253638V743.5213757225433H1156.068732825364Q1151.4687328253638 743.5213757225433 1151.4687328253638 738.9213757225433V726.8213757225433Q1151.4687328253638 722.2213757225433 1156.068732825364 722.2213757225433H1198.6687328253638Q1203.2687328253637 722.2213757225433 1203.2687328253637 726.8213757225433V738.9213757225433Q1203.2687328253637 743.5213757225433 1198.6687328253638 743.5213757225433H1189.9687328253638V775.1213757225433H1198.6687328253638Q1203.2687328253637 775.1213757225433 1203.2687328253637 779.7213757225434V791.6213757225433Q1203.2687328253637 796.2213757225434 1198.6687328253638 796.2213757225434ZM1156.068732825364 795.2213757225434H1198.6687328253638Q1202.2687328253637 795.2213757225434 1202.2687328253637 791.6213757225433V779.7213757225434Q1202.2687328253637 776.1213757225433 1198.6687328253638 776.1213757225433H1188.9687328253638V742.5213757225433H1198.6687328253638Q1202.2687328253637 742.5213757225433 1202.2687328253637 738.9213757225433V726.8213757225433Q1202.2687328253637 723.2213757225433 1198.6687328253638 723.2213757225433H1156.068732825364Q1152.4687328253638 723.2213757225433 1152.4687328253638 726.8213757225433V738.9213757225433Q1152.4687328253638 742.5213757225433 1156.068732825364 742.5213757225433H1165.9687328253638V776.1213757225433H1156.068732825364Q1152.4687328253638 776.1213757225433 1152.4687328253638 779.7213757225434V791.6213757225433Q1152.4687328253638 795.2213757225434 1156.068732825364 795.2213757225434ZM1161.4687328253638 733.2213757225434V732.2213757225434H1193.2687328253637V733.2213757225434H1177.9687328253638V785.2213757225434H1193.2687328253637V786.2213757225434H1161.4687328253638V785.2213757225434H1176.9687328253638V733.2213757225434ZM1233.6687328253638 796.2213757225434H1218.1687328253638Q1213.568732825364 796.2213757225434 1213.568732825364 791.6213757225433V726.8213757225433Q1213.568732825364 722.2213757225434 1218.1687328253638 722.2213757225434H1262.7687328253637Q1267.3687328253638 722.2213757225434 1267.3687328253638 726.8213757225433V738.7213757225434Q1267.3687328253638 743.3213757225433 1262.7687328253637 743.3213757225433H1238.2687328253637V751.7213757225434H1254.6687328253638Q1259.2687328253637 751.7213757225434 1259.2687328253637 756.3213757225433V768.3213757225433Q1259.2687328253637 772.9213757225434 1254.6687328253638 772.9213757225434H1238.2687328253637V791.6213757225433Q1238.2687328253637 796.2213757225434 1233.6687328253638 796.2213757225434ZM1218.1687328253638 795.2213757225434H1233.6687328253638Q1237.2687328253637 795.2213757225434 1237.2687328253637 791.6213757225433V771.9213757225434H1254.6687328253638Q1258.2687328253637 771.9213757225434 1258.2687328253637 768.3213757225433V756.3213757225433Q1258.2687328253637 752.7213757225434 1254.6687328253638 752.7213757225434H1237.2687328253637V742.3213757225433H1262.7687328253637Q1266.3687328253638 742.3213757225433 1266.3687328253638 738.7213757225434V726.8213757225433Q1266.3687328253638 723.2213757225434 1262.7687328253637 723.2213757225434H1218.1687328253638Q1214.568732825364 723.2213757225434 1214.568732825364 726.8213757225433V791.6213757225433Q1214.568732825364 795.2213757225434 1218.1687328253638 795.2213757225434ZM1226.4687328253638 786.2213757225434H1225.4687328253638V732.2213757225434H1257.3687328253636V733.2213757225434H1226.4687328253638V761.8213757225434H1249.2687328253637V762.8213757225434H1226.4687328253638ZM1332.4687328253638 758.9213757225434L1317.4687328253638 779.2213757225434V791.6213757225433Q1317.4687328253638 796.2213757225434 1312.8687328253636 796.2213757225434H1296.6687328253638Q1294.1687328253638 796.2213757225434 1293.1187328253636 795.1213757225433T1292.068732825364 791.6213757225433V779.1213757225433L1276.9687328253638 758.9213757225434Q1275.3687328253636 756.7213757225434 1274.5187328253637 755.0713757225433T1273.3187328253637 751.3213757225433T1272.9687328253635 746.0213757225433V726.8213757225433Q1272.9687328253635 722.2213757225434 1277.5687328253637 722.2213757225434H1292.9687328253635Q1297.5687328253637 722.2213757225434 1297.5687328253637 726.8213757225433V743.2213757225434Q1297.5687328253637 744.1213757225432 1297.6687328253638 745.0213757225433T1298.2687328253637 746.9213757225433L1302.9687328253638 754.1213757225432Q1303.568732825364 755.3213757225433 1304.4687328253638 755.3213757225433H1305.4687328253638Q1306.3687328253636 755.3213757225433 1307.068732825364 754.1213757225432L1311.6687328253638 746.9213757225433Q1312.1687328253638 745.9213757225433 1312.2687328253637 745.0213757225433T1312.3687328253638 743.2213757225434V726.8213757225433Q1312.3687328253638 722.2213757225434 1316.968732825364 722.2213757225434H1331.8687328253638Q1336.468732825364 722.2213757225434 1336.468732825364 726.8213757225433V746.0213757225433Q1336.468732825364 749.2213757225434 1336.1187328253638 751.3213757225433T1334.9187328253638 755.0713757225433T1332.4687328253638 758.9213757225434ZM1296.6687328253638 795.2213757225434H1312.8687328253638Q1316.468732825364 795.2213757225434 1316.468732825364 791.6213757225433V778.9213757225434L1331.6687328253638 758.3213757225433Q1333.1687328253638 756.2213757225434 1334.018732825364 754.6213757225433T1335.1687328253638 751.0713757225433T1335.468732825364 746.0213757225433V726.8213757225433Q1335.468732825364 723.2213757225434 1331.8687328253638 723.2213757225434H1316.968732825364Q1313.3687328253638 723.2213757225434 1313.3687328253638 726.8213757225433V743.2213757225434Q1313.3687328253638 744.2213757225434 1313.2687328253637 745.2713757225433T1312.468732825364 747.4213757225433L1307.8687328253638 754.6213757225432Q1306.8687328253638 756.3213757225433 1305.468732825364 756.3213757225433H1304.468732825364Q1303.068732825364 756.3213757225433 1302.068732825364 754.6213757225432L1297.468732825364 747.4213757225433Q1296.7687328253637 746.3213757225433 1296.6687328253638 745.2713757225433T1296.568732825364 743.2213757225434V726.8213757225433Q1296.568732825364 723.2213757225434 1292.968732825364 723.2213757225434H1277.568732825364Q1273.968732825364 723.2213757225434 1273.968732825364 726.8213757225433V746.0213757225433Q1273.968732825364 749.1213757225433 1274.2687328253637 751.0713757225433T1275.4187328253638 754.6213757225433T1277.7687328253637 758.3213757225433L1293.068732825364 778.8213757225433V791.6213757225433Q1293.068732825364 795.2213757225434 1296.6687328253638 795.2213757225434ZM1305.2687328253637 786.2213757225434H1304.2687328253637V769.1213757225433H1303.2687328253637Q1301.068732825364 769.1213757225433 1299.3687328253638 768.1213757225433T1295.968732825364 764.9213757225434L1286.2687328253637 751.4213757225434Q1285.1687328253638 749.9213757225434 1284.968732825364 747.9213757225434T1284.7687328253637 743.7213757225434V732.2213757225434H1285.7687328253637V743.7213757225434Q1285.7687328253637 745.8213757225434 1285.968732825364 747.6713757225434T1287.1687328253638 751.0213757225433L1296.868732825364 764.5213757225433Q1298.268732825364 766.5213757225433 1299.9187328253638 767.3213757225434T1303.268732825364 768.1213757225435H1305.968732825364Q1307.868732825364 768.1213757225435 1309.418732825364 767.2713757225433T1312.468732825364 764.5213757225433L1322.468732825364 751.0213757225433Q1323.568732825364 749.6213757225435 1323.718732825364 747.7213757225434T1323.868732825364 743.7213757225434V732.2213757225434H1324.868732825364V744.2213757225434Q1324.868732825364 746.2213757225434 1324.6687328253638 748.0713757225434T1323.368732825364 751.4213757225434L1313.368732825364 764.9213757225434Q1311.768732825364 767.1213757225435 1310.018732825364 768.1213757225435T1305.968732825364 769.1213757225435H1305.268732825364Z " paint-order="stroke"></path><path fill="#797979" d="M734.5347328253638 774.7583757225434A14.39 14.39 0 0 0 730.6157328253638 762.1533757225434A13.645 13.645 0 0 1 728.6967328253638 787.4433757225434A1.677 1.677 0 0 0 729.6867328253638 790.6453757225433C737.9637328253638 788.0613757225434 742.9687328253638 779.6613757225434 741.3017328253638 771.1523757225434A13.655 13.655 0 0 0 736.8877328253637 748.7303757225434A27.88 27.88 0 0 1 721.4557328253637 733.1863757225434A38.18 38.18 0 0 0 719.0617328253637 766.4563757225434A13.635 13.635 0 0 0 734.5247328253638 774.7583757225434M757.1637328253638 735.1733757225434C770.7507328253638 741.4443757225434 777.8667328253638 756.5733757225435 774.0307328253638 771.0383757225434L778.3737328253637 775.0183757225434L757.8097328253638 785.2383757225434L762.1027328253638 760.1203757225435L766.1727328253637 763.8473757225435A30.8 30.8 0 0 0 757.1637328253637 735.1633757225434M704.0937328253638 789.1293757225435C690.5067328253638 782.8583757225434 683.3907328253638 767.7293757225434 687.2267328253638 753.2643757225435L682.8837328253637 749.2843757225435L703.4367328253637 739.0543757225435L699.1447328253637 764.1823757225434L695.0747328253638 760.4453757225433A30.8 30.8 0 0 0 704.0837328253638 789.1293757225434 "></path><rect width="342" height="39.55" x="439.5787328253638" y="342.6663757225434" fill="none" rx="0" ry="0" transform="translate(559.85 459.49)"></rect><path fill="#282828" d="M1014.4587328253639 807.9213757225434L1008.1687328253638 820.7013757225434V832.4213757225434H1005.9687328253639V820.7313757225434L999.6287328253638 807.9213757225434H1001.998732825364L1007.0387328253639 818.1013757225435L1012.0787328253639 807.9213757225434ZM1028.9587328253638 827.6213757225435Q1028.9587328253638 828.6813757225434 1028.558732825364 829.6213757225435T1027.4587328253638 831.2613757225433T1025.818732825364 832.3613757225435T1023.8187328253639 832.7613757225433H1022.4187328253639Q1021.3587328253639 832.7613757225433 1020.4187328253639 832.3613757225435T1018.7787328253639 831.2613757225433T1017.6687328253639 829.6213757225435Q1017.2687328253639 828.6813757225434 1017.2687328253639 827.6213757225435V819.7313757225434Q1017.2687328253639 818.6713757225434 1017.6687328253639 817.7313757225434Q1018.0787328253639 816.7913757225434 1018.7787328253639 816.0913757225435Q1019.478732825364 815.3813757225435 1020.4187328253639 814.9813757225434T1022.4187328253639 814.5813757225435H1023.8187328253639Q1024.8787328253638 814.5813757225435 1025.818732825364 814.9813757225434T1027.4587328253638 816.0913757225435Q1028.1587328253638 816.7913757225434 1028.558732825364 817.7313757225434T1028.9587328253638 819.7313757225434ZM1026.8587328253639 827.7413757225434V819.6113757225435Q1026.8587328253639 818.9713757225434 1026.6187328253638 818.4213757225434Q1026.3787328253638 817.8613757225435 1025.968732825364 817.4513757225434T1025.008732825364 816.8013757225434Q1024.448732825364 816.5613757225434 1023.8187328253639 816.5613757225434H1022.4187328253639Q1021.7787328253639 816.5613757225434 1021.228732825364 816.8013757225434Q1020.6687328253639 817.0413757225434 1020.258732825364 817.4513757225434T1019.6087328253639 818.4213757225434Q1019.3687328253638 818.9713757225434 1019.3687328253638 819.6113757225435V827.7413757225434Q1019.3687328253638 828.3713757225435 1019.6087328253639 828.9313757225434Q1019.8487328253639 829.4813757225434 1020.258732825364 829.8913757225434T1021.228732825364 830.5413757225433Q1021.7787328253639 830.7813757225433 1022.4187328253639 830.7813757225433H1023.8187328253639Q1024.448732825364 830.7813757225433 1025.008732825364 830.5413757225433Q1025.558732825364 830.3013757225433 1025.968732825364 829.8913757225434T1026.6187328253638 828.9313757225434Q1026.8587328253639 828.3713757225435 1026.8587328253639 827.7413757225434M1044.8587328253639 832.4213757225434H1044.1487328253638L1042.988732825364 830.6513757225434Q1042.2687328253637 831.6213757225435 1041.1987328253638 832.1913757225434Q1040.1187328253638 832.7613757225434 1038.8387328253639 832.7613757225434H1038.308732825364Q1037.2487328253637 832.7613757225434 1036.308732825364 832.3613757225435T1034.6687328253638 831.2613757225434T1033.568732825364 829.6213757225435T1033.1687328253638 827.6213757225435V814.9213757225434H1035.268732825364V827.7413757225435Q1035.268732825364 828.3713757225435 1035.508732825364 828.9313757225434Q1035.748732825364 829.4813757225435 1036.1587328253638 829.8913757225434T1037.1187328253638 830.5413757225434Q1037.6787328253638 830.7813757225434 1038.308732825364 830.7813757225434H1039.7087328253638Q1040.3387328253639 830.7813757225434 1040.8987328253638 830.5413757225434Q1041.4487328253638 830.3013757225434 1041.8587328253639 829.8913757225434T1042.5087328253637 828.9313757225434Q1042.7487328253637 828.3713757225435 1042.7487328253637 827.7413757225435V814.9213757225434H1044.8587328253639ZM1056.298732825364 816.9213757225434H1054.1887328253638Q1053.558732825364 816.9213757225434 1053.008732825364 817.1613757225434Q1052.4487328253638 817.4013757225434 1052.0387328253637 817.8113757225434T1051.3887328253638 818.7813757225434Q1051.1487328253638 819.3313757225435 1051.1487328253638 819.9613757225434V832.4213757225434H1049.048732825364V814.9213757225434H1049.7487328253637L1050.8987328253638 816.7013757225434Q1051.6087328253639 815.7313757225434 1052.6987328253638 815.1513757225434Q1053.7787328253637 814.5813757225434 1055.068732825364 814.5813757225434H1056.298732825364ZM1081.288732825364 826.0113757225433V826.7513757225433Q1081.288732825364 828.0013757225433 1080.788732825364 829.0913757225434Q1080.278732825364 830.1813757225434 1079.4387328253638 831.0013757225433Q1078.5887328253639 831.8213757225434 1077.4687328253638 832.2913757225434T1075.0987328253639 832.7613757225434H1073.3387328253639Q1072.0987328253639 832.7613757225434 1070.9787328253637 832.2913757225434T1069.0087328253637 831.0013757225433Q1068.1687328253638 830.1813757225434 1067.6587328253638 829.0913757225434Q1067.1587328253638 828.0013757225433 1067.1587328253638 826.7513757225433V825.7713757225433L1069.3587328253639 825.4213757225434V826.7513757225433Q1069.3587328253639 827.5713757225433 1069.6987328253638 828.2813757225433Q1070.0287328253637 828.9913757225434 1070.5887328253636 829.5313757225433Q1071.1587328253636 830.0613757225433 1071.8987328253638 830.3713757225432T1073.4587328253638 830.6813757225433H1074.9987328253637Q1075.8187328253637 830.6813757225433 1076.5587328253637 830.3713757225432Q1077.2887328253637 830.0613757225433 1077.8587328253639 829.5313757225433Q1078.4187328253638 828.9913757225434 1078.7487328253637 828.2813757225433Q1079.0887328253636 827.5713757225433 1079.0887328253636 826.7513757225433V826.0113757225433Q1079.0887328253636 824.7513757225433 1078.5887328253636 823.9113757225433Q1078.0987328253636 823.0713757225433 1077.2687328253637 822.4913757225434Q1076.4487328253638 821.9013757225433 1075.4187328253638 821.4913757225434T1073.2887328253637 820.6713757225433Q1072.1987328253638 820.2513757225433 1071.1687328253638 819.7613757225433Q1070.1287328253636 819.2613757225433 1069.3087328253637 818.5213757225433T1067.9987328253637 816.7013757225433Q1067.4987328253637 815.6213757225432 1067.4987328253637 814.0513757225433V813.5913757225433Q1067.4987328253637 812.3413757225433 1067.9687328253638 811.2513757225433Q1068.4387328253638 810.1513757225433 1069.2587328253637 809.3313757225433T1071.1787328253638 808.0413757225433T1073.5287328253637 807.5713757225433H1075.0987328253636Q1076.3487328253636 807.5713757225433 1077.4487328253638 808.0413757225433Q1078.5387328253637 808.5113757225433 1079.3587328253639 809.3313757225433T1080.6487328253638 811.2513757225433Q1081.1187328253638 812.3413757225433 1081.1187328253638 813.5913757225433V814.2213757225434L1078.9187328253638 814.5813757225433V813.5913757225433Q1078.9187328253638 812.7713757225433 1078.6087328253639 812.0613757225433T1077.768732825364 810.8213757225433T1076.528732825364 809.9813757225434Q1075.818732825364 809.6813757225434 1074.998732825364 809.6813757225434H1073.6287328253638Q1072.808732825364 809.6813757225434 1072.1087328253639 809.9813757225434Q1071.3987328253638 810.2913757225433 1070.8587328253639 810.8213757225433T1070.008732825364 812.0613757225433T1069.698732825364 813.5913757225433V814.0513757225433Q1069.698732825364 815.2313757225434 1070.198732825364 816.0313757225433Q1070.698732825364 816.8413757225433 1071.518732825364 817.4113757225433T1073.3687328253638 818.4013757225433T1075.498732825364 819.2613757225433Q1076.5887328253639 819.6913757225434 1077.6287328253638 820.2113757225434Q1078.6587328253638 820.7313757225434 1079.478732825364 821.4913757225434T1080.798732825364 823.3513757225433Q1081.288732825364 824.4413757225433 1081.288732825364 826.0113757225433M1096.998732825364 827.6213757225433Q1096.998732825364 828.6813757225434 1096.5987328253639 829.6213757225433T1095.498732825364 831.2613757225433T1093.8587328253639 832.3613757225434T1091.8587328253639 832.7613757225433H1090.458732825364Q1089.3987328253638 832.7613757225433 1088.458732825364 832.3613757225434T1086.818732825364 831.2613757225433T1085.718732825364 829.6213757225433Q1085.308732825364 828.6813757225434 1085.308732825364 827.6213757225433V819.7313757225434Q1085.308732825364 818.6713757225434 1085.718732825364 817.7313757225434Q1086.1187328253638 816.7913757225433 1086.818732825364 816.0913757225434Q1087.518732825364 815.3813757225435 1088.458732825364 814.9813757225434T1090.458732825364 814.5813757225434H1091.8587328253639Q1092.9187328253638 814.5813757225434 1093.8587328253639 814.9813757225434T1095.498732825364 816.0913757225434Q1096.198732825364 816.7913757225433 1096.5987328253639 817.7313757225434T1096.998732825364 819.7313757225434V820.4313757225434L1094.8987328253638 820.7713757225433V819.6113757225432Q1094.8987328253638 818.9713757225434 1094.6587328253638 818.4213757225433Q1094.4187328253638 817.8613757225432 1094.008732825364 817.4513757225433T1093.048732825364 816.8013757225433Q1092.488732825364 816.5613757225433 1091.8587328253639 816.5613757225433H1090.458732825364Q1089.8287328253639 816.5613757225433 1089.268732825364 816.8013757225433Q1088.718732825364 817.0413757225433 1088.308732825364 817.4513757225433Q1087.888732825364 817.8613757225432 1087.658732825364 818.4213757225433Q1087.418732825364 818.9713757225434 1087.418732825364 819.6113757225432V827.7413757225434Q1087.418732825364 828.3713757225432 1087.658732825364 828.9313757225433Q1087.888732825364 829.4813757225434 1088.308732825364 829.8913757225432Q1088.718732825364 830.3013757225433 1089.268732825364 830.5413757225433Q1089.8287328253639 830.7813757225433 1090.458732825364 830.7813757225433H1091.8587328253639Q1092.488732825364 830.7813757225433 1093.048732825364 830.5413757225433Q1093.5987328253639 830.3013757225433 1094.008732825364 829.8913757225432T1094.6587328253638 828.9313757225433Q1094.8987328253638 828.3713757225432 1094.8987328253638 827.7413757225434V826.5813757225433L1096.998732825364 826.9213757225432ZM1108.448732825364 816.9213757225434H1106.3487328253639Q1105.718732825364 816.9213757225434 1105.1587328253638 817.1613757225434Q1104.6087328253639 817.4013757225434 1104.198732825364 817.8113757225433T1103.548732825364 818.7813757225433Q1103.308732825364 819.3313757225434 1103.308732825364 819.9613757225434V832.4213757225434H1101.2087328253638V814.9213757225434H1101.9087328253638L1103.048732825364 816.7013757225434Q1103.768732825364 815.7313757225434 1104.8587328253639 815.1513757225433Q1105.9387328253638 814.5813757225433 1107.218732825364 814.5813757225433H1108.448732825364ZM1122.9587328253638 832.4213757225434H1122.258732825364L1121.0887328253639 830.6813757225434Q1120.3787328253638 831.6213757225433 1119.298732825364 832.1913757225434T1116.9387328253638 832.7613757225433H1116.4087328253638Q1115.3487328253639 832.7613757225433 1114.4087328253638 832.3613757225434T1112.768732825364 831.2613757225433T1111.6687328253638 829.6213757225433T1111.268732825364 827.6213757225433V827.4513757225434Q1111.268732825364 826.3913757225433 1111.6687328253638 825.4513757225434T1112.768732825364 823.8113757225433T1114.4087328253638 822.7113757225434T1116.4087328253638 822.3113757225433H1120.8487328253639V819.6113757225434Q1120.8487328253639 818.9713757225434 1120.6087328253639 818.4213757225434Q1120.3787328253638 817.8613757225434 1119.968732825364 817.4513757225434T1118.9987328253637 816.8013757225433T1117.808732825364 816.5613757225433H1116.5787328253639Q1115.948732825364 816.5613757225433 1115.3887328253638 816.8013757225433Q1114.8387328253639 817.0413757225433 1114.428732825364 817.4513757225434T1113.778732825364 818.4213757225434Q1113.538732825364 818.9713757225434 1113.538732825364 819.6113757225434V820.2413757225434L1111.4387328253638 819.9013757225434V819.7313757225434Q1111.4387328253638 818.6713757225434 1111.8387328253639 817.7313757225434T1112.9387328253638 816.0913757225434Q1113.6387328253638 815.3813757225435 1114.5787328253639 814.9813757225434T1116.5787328253639 814.5813757225434H1117.808732825364Q1118.8687328253638 814.5813757225434 1119.808732825364 814.9813757225434T1121.448732825364 816.0913757225434Q1122.1487328253638 816.7913757225433 1122.548732825364 817.7313757225434Q1122.9587328253638 818.6713757225434 1122.9587328253638 819.7313757225434ZM1120.8487328253639 827.7413757225434V823.9513757225434H1116.4087328253638Q1115.778732825364 823.9513757225434 1115.218732825364 824.1913757225434Q1114.6687328253638 824.4213757225434 1114.258732825364 824.8413757225433T1113.6087328253639 825.8213757225433Q1113.3687328253638 826.3713757225433 1113.3687328253638 827.0113757225433V827.7413757225434Q1113.3687328253638 828.3713757225433 1113.6087328253639 828.9313757225434Q1113.8487328253639 829.4813757225434 1114.258732825364 829.8913757225433T1115.218732825364 830.5413757225433Q1115.778732825364 830.7813757225433 1116.4087328253638 830.7813757225433H1117.808732825364Q1118.4387328253638 830.7813757225433 1118.9987328253637 830.5413757225433T1119.968732825364 829.8913757225433T1120.6087328253639 828.9313757225434Q1120.8487328253639 828.3713757225433 1120.8487328253639 827.7413757225434M1138.8487328253639 827.6313757225433Q1138.8487328253639 828.6913757225434 1138.448732825364 829.6313757225433T1137.3487328253639 831.2713757225433T1135.7087328253638 832.3713757225433T1133.7087328253638 832.7713757225433H1133.178732825364Q1131.998732825364 832.7713757225433 1130.988732825364 832.3013757225433Q1129.9787328253637 831.8213757225433 1129.258732825364 830.9613757225434V839.4413757225434H1127.1587328253638V814.9313757225434H1127.8587328253639L1129.008732825364 816.7113757225434Q1129.718732825364 815.7413757225434 1130.8087328253637 815.1613757225434Q1131.8887328253638 814.5913757225434 1133.1787328253638 814.5913757225434H1133.7087328253638Q1134.7687328253637 814.5913757225434 1135.7087328253638 814.9913757225434T1137.3487328253636 816.1013757225434Q1138.048732825364 816.8013757225433 1138.4487328253638 817.7413757225434T1138.8487328253636 819.7413757225434ZM1136.7487328253637 827.7513757225433V819.6213757225433Q1136.7487328253637 818.9813757225434 1136.508732825364 818.4313757225434Q1136.2687328253637 817.8713757225433 1135.8587328253639 817.4613757225434T1134.8887328253638 816.8113757225433Q1134.3387328253639 816.5713757225433 1133.7087328253638 816.5713757225433H1132.298732825364Q1131.6687328253638 816.5713757225433 1131.118732825364 816.8113757225433Q1130.5587328253641 817.0513757225433 1130.1487328253638 817.4613757225434T1129.498732825364 818.4313757225434Q1129.258732825364 818.9813757225434 1129.258732825364 819.6213757225433V827.7513757225433Q1129.258732825364 828.3813757225433 1129.498732825364 828.9413757225434Q1129.738732825364 829.4913757225434 1130.1487328253638 829.9013757225433T1131.118732825364 830.5513757225433Q1131.6687328253638 830.7913757225433 1132.298732825364 830.7913757225433H1133.7087328253638Q1134.3387328253639 830.7913757225433 1134.8887328253638 830.5513757225433Q1135.4487328253638 830.3113757225433 1135.8587328253639 829.9013757225433T1136.508732825364 828.9413757225434Q1136.7487328253637 828.3813757225433 1136.7487328253637 827.7513757225433M1146.0187328253637 829.7913757225433L1144.2687328253637 837.3313757225434H1143.3887328253638V829.7913757225433ZM1172.7487328253637 826.7513757225433Q1172.7487328253637 828.0013757225433 1172.278732825364 829.0913757225433T1170.988732825364 831.0013757225433T1169.068732825364 832.2913757225433Q1167.9787328253637 832.7613757225433 1166.7287328253637 832.7613757225433H1164.988732825364Q1163.738732825364 832.7613757225433 1162.6387328253638 832.2913757225433T1160.7087328253638 831.0013757225433Q1159.8887328253638 830.1813757225434 1159.4187328253638 829.0913757225433T1158.948732825364 826.7513757225433V813.5913757225433Q1158.948732825364 812.3413757225433 1159.4187328253638 811.2513757225433Q1159.888732825364 810.1513757225433 1160.7087328253638 809.3313757225433Q1161.538732825364 808.5113757225433 1162.6387328253638 808.0413757225433T1164.988732825364 807.5713757225433H1166.7287328253637Q1167.9787328253637 807.5713757225433 1169.068732825364 808.0413757225433Q1170.1687328253638 808.5113757225433 1170.988732825364 809.3313757225433T1172.278732825364 811.2513757225433Q1172.7487328253637 812.3413757225433 1172.7487328253637 813.5913757225433ZM1170.5387328253637 826.7513757225433V813.5913757225433Q1170.5387328253637 812.7713757225433 1170.2287328253637 812.0613757225433Q1169.928732825364 811.3513757225434 1169.3987328253638 810.8213757225433T1168.1587328253638 809.9813757225434Q1167.4487328253638 809.6813757225434 1166.6287328253638 809.6813757225434H1165.0887328253639Q1164.2687328253637 809.6813757225434 1163.558732825364 809.9813757225434Q1162.8487328253639 810.2913757225433 1162.308732825364 810.8213757225433T1161.468732825364 812.0613757225433Q1161.158732825364 812.7713757225433 1161.158732825364 813.5913757225433V826.7513757225433Q1161.158732825364 827.5713757225433 1161.468732825364 828.2813757225433Q1161.7687328253637 828.9913757225434 1162.308732825364 829.5313757225433Q1162.8487328253639 830.0613757225433 1163.558732825364 830.3713757225432T1165.0887328253639 830.6813757225433H1166.6287328253638Q1167.448732825364 830.6813757225433 1168.1587328253638 830.3713757225432T1169.3987328253638 829.5313757225433Q1169.9287328253638 828.9913757225434 1170.2287328253637 828.2813757225433Q1170.5387328253637 827.5713757225433 1170.5387328253637 826.7513757225433M1188.9987328253637 832.4213757225434H1188.2987328253637L1187.1387328253638 830.6513757225434Q1186.4187328253638 831.6213757225435 1185.3387328253639 832.1913757225434T1182.9787328253637 832.7613757225433H1182.4487328253638Q1181.3887328253638 832.7613757225433 1180.4487328253638 832.3613757225435T1178.808732825364 831.2613757225433T1177.7087328253638 829.6213757225435T1177.308732825364 827.6213757225435V814.9213757225434H1179.4087328253638V827.7413757225434Q1179.4087328253638 828.3713757225435 1179.6487328253638 828.9313757225434Q1179.8887328253638 829.4813757225434 1180.298732825364 829.8913757225434T1181.268732825364 830.5413757225433Q1181.818732825364 830.7813757225433 1182.4487328253638 830.7813757225433H1183.8487328253639Q1184.4887328253637 830.7813757225433 1185.038732825364 830.5413757225433Q1185.5987328253639 830.3013757225433 1186.008732825364 829.8913757225434T1186.6587328253638 828.9313757225434Q1186.8987328253638 828.3713757225435 1186.8987328253638 827.7413757225434V814.9213757225434H1188.998732825364ZM1200.4487328253638 816.9213757225434H1198.3487328253639Q1197.7087328253638 816.9213757225434 1197.1587328253638 817.1613757225434Q1196.5987328253639 817.4013757225434 1196.1887328253638 817.8113757225433T1195.5387328253637 818.7813757225433Q1195.2987328253637 819.3313757225434 1195.2987328253637 819.9613757225434V832.4213757225434H1193.1987328253638V814.9213757225434H1193.8987328253638L1195.0487328253637 816.7013757225434Q1195.7687328253637 815.7313757225434 1196.8487328253636 815.1513757225433Q1197.9387328253638 814.5813757225433 1199.2187328253638 814.5813757225433H1200.4487328253638ZM1225.4287328253638 826.0113757225433V826.7513757225433Q1225.4287328253638 828.0013757225433 1224.9287328253638 829.0913757225433T1223.5787328253639 831.0013757225433T1221.6087328253639 832.2913757225433T1219.2487328253637 832.7613757225433H1217.4887328253637Q1216.2387328253637 832.7613757225433 1215.1187328253638 832.2913757225433T1213.1487328253638 831.0013757225433Q1212.3087328253637 830.1813757225434 1211.7987328253637 829.0913757225433Q1211.2987328253637 828.0013757225433 1211.2987328253637 826.7513757225433V825.7713757225433L1213.5087328253637 825.4213757225433V826.7513757225433Q1213.5087328253637 827.5713757225433 1213.8387328253639 828.2813757225433T1214.7387328253637 829.5313757225433Q1215.2987328253637 830.0613757225433 1216.0387328253637 830.3713757225432Q1216.7887328253637 830.6813757225432 1217.6087328253639 830.6813757225432H1219.1387328253638Q1219.9687328253638 830.6813757225432 1220.6987328253638 830.3713757225432T1221.9987328253637 829.5313757225433Q1222.5587328253637 828.9913757225432 1222.8987328253636 828.2813757225433Q1223.2287328253637 827.5713757225433 1223.2287328253637 826.7513757225433V826.0113757225433Q1223.2287328253637 824.7513757225433 1222.7287328253637 823.9113757225432Q1222.2387328253637 823.0713757225433 1221.4187328253638 822.4913757225432Q1220.5987328253636 821.9013757225432 1219.5587328253637 821.4913757225432Q1218.5287328253637 821.0813757225433 1217.4387328253638 820.6713757225432Q1216.3387328253636 820.2513757225432 1215.3087328253637 819.7613757225432Q1214.2687328253637 819.2613757225432 1213.4487328253638 818.5213757225432T1212.1387328253638 816.7013757225432Q1211.6387328253638 815.6213757225432 1211.6387328253638 814.0513757225433V813.5913757225433Q1211.6387328253638 812.3413757225433 1212.1087328253639 811.2513757225433Q1212.5787328253639 810.1513757225432 1213.3987328253638 809.3313757225433T1215.3287328253637 808.0413757225433Q1216.4287328253638 807.5713757225433 1217.6787328253638 807.5713757225433H1219.2487328253637Q1220.4887328253637 807.5713757225433 1221.5887328253639 808.0413757225433Q1222.6787328253638 808.5113757225433 1223.4987328253637 809.3313757225433T1224.7887328253637 811.2513757225433Q1225.2587328253637 812.3413757225433 1225.2587328253637 813.5913757225433V814.2213757225433L1223.0587328253637 814.5813757225433V813.5913757225433Q1223.0587328253637 812.7713757225433 1222.7487328253637 812.0613757225433T1221.9087328253638 810.8213757225433T1220.6687328253638 809.9813757225434Q1219.9687328253638 809.6813757225433 1219.1387328253638 809.6813757225433H1217.7787328253637Q1216.9587328253638 809.6813757225433 1216.2487328253637 809.9813757225434Q1215.5387328253637 810.2913757225433 1214.9987328253637 810.8213757225433T1214.1487328253638 812.0613757225433Q1213.8487328253639 812.7713757225433 1213.8487328253639 813.5913757225433V814.0513757225433Q1213.8487328253639 815.2313757225432 1214.3387328253639 816.0313757225433Q1214.8387328253639 816.8413757225433 1215.6587328253638 817.4113757225432T1217.508732825364 818.4013757225432L1219.6387328253638 819.2613757225433Q1220.728732825364 819.6913757225433 1221.768732825364 820.2113757225433Q1222.798732825364 820.7313757225432 1223.6187328253638 821.4913757225432T1224.938732825364 823.3513757225433Q1225.428732825364 824.4413757225432 1225.428732825364 826.0113757225433M1241.158732825364 827.6213757225432Q1241.158732825364 828.6813757225433 1240.748732825364 829.6213757225432Q1240.348732825364 830.5613757225433 1239.648732825364 831.2613757225433T1238.008732825364 832.3613757225432T1236.008732825364 832.7613757225433H1234.608732825364Q1233.5487328253641 832.7613757225433 1232.608732825364 832.3613757225432T1230.968732825364 831.2613757225433T1229.868732825364 829.6213757225432T1229.468732825364 827.6213757225432V819.7313757225434Q1229.468732825364 818.6713757225433 1229.868732825364 817.7313757225434T1230.968732825364 816.0913757225433Q1231.668732825364 815.3813757225433 1232.608732825364 814.9813757225434T1234.608732825364 814.5813757225433H1236.008732825364Q1237.068732825364 814.5813757225433 1238.008732825364 814.9813757225434T1239.648732825364 816.0913757225433Q1240.348732825364 816.7913757225433 1240.748732825364 817.7313757225434Q1241.158732825364 818.6713757225433 1241.158732825364 819.7313757225434ZM1239.048732825364 827.7413757225434V819.6113757225432Q1239.048732825364 818.9713757225434 1238.818732825364 818.4213757225433Q1238.5787328253639 817.8613757225432 1238.168732825364 817.4513757225433T1237.198732825364 816.8013757225433T1236.008732825364 816.5613757225433H1234.6087328253639Q1233.978732825364 816.5613757225433 1233.4187328253638 816.8013757225433Q1232.8687328253638 817.0413757225433 1232.4587328253638 817.4513757225433T1231.808732825364 818.4213757225433Q1231.568732825364 818.9713757225434 1231.568732825364 819.6113757225432V827.7413757225434Q1231.568732825364 828.3713757225432 1231.808732825364 828.9313757225433Q1232.048732825364 829.4813757225434 1232.4587328253638 829.8913757225432T1233.4187328253638 830.5413757225433Q1233.9787328253637 830.7813757225433 1234.6087328253639 830.7813757225433H1236.008732825364Q1236.6387328253638 830.7813757225433 1237.198732825364 830.5413757225433T1238.168732825364 829.8913757225432T1238.818732825364 828.9313757225433Q1239.048732825364 828.3713757225432 1239.048732825364 827.7413757225434M1248.158732825364 832.4213757225433H1246.058732825364V807.9213757225433H1248.158732825364ZM1264.758732825364 832.4213757225433H1264.058732825364L1262.888732825364 830.6513757225433Q1262.178732825364 831.6213757225433 1261.098732825364 832.1913757225434T1258.738732825364 832.7613757225433H1258.208732825364Q1257.148732825364 832.7613757225433 1256.208732825364 832.3613757225434T1254.5687328253641 831.2613757225433T1253.468732825364 829.6213757225433T1253.0687328253641 827.6213757225433V814.9213757225434H1255.168732825364V827.7413757225434Q1255.168732825364 828.3713757225433 1255.408732825364 828.9313757225434Q1255.648732825364 829.4813757225434 1256.0587328253641 829.8913757225433T1257.0187328253642 830.5413757225433Q1257.578732825364 830.7813757225433 1258.2087328253642 830.7813757225433H1259.608732825364Q1260.2487328253642 830.7813757225433 1260.7987328253641 830.5413757225433Q1261.358732825364 830.3013757225433 1261.7687328253642 829.8913757225433T1262.4187328253643 828.9313757225434Q1262.6587328253643 828.3713757225433 1262.6587328253643 827.7413757225434V814.9213757225434H1264.7587328253642ZM1277.248732825364 832.4213757225433H1275.338732825364Q1274.378732825364 832.4213757225433 1273.5287328253642 832.0613757225433Q1272.688732825364 831.7113757225433 1272.0587328253641 831.0713757225433Q1271.438732825364 830.4413757225433 1271.0687328253641 829.6013757225433Q1270.698732825364 828.7713757225433 1270.698732825364 827.8113757225433V816.9213757225432H1267.5587328253641V814.9213757225432H1270.698732825364V810.7213757225433L1272.8087328253641 810.3813757225432V814.9213757225433H1277.2487328253642V816.9213757225433H1272.8087328253641V827.9113757225433Q1272.8087328253641 828.4413757225433 1272.9987328253642 828.8913757225433Q1273.1987328253642 829.3513757225433 1273.5387328253641 829.6913757225434T1274.348732825364 830.2313757225434Q1274.8087328253641 830.4213757225434 1275.338732825364 830.4213757225434H1277.248732825364ZM1284.098732825364 810.7213757225434H1281.648732825364V807.9213757225433H1284.098732825364ZM1283.928732825364 832.4213757225433H1281.8187328253641V814.9213757225433H1283.928732825364ZM1300.5087328253642 827.6213757225432Q1300.5087328253642 828.6813757225433 1300.108732825364 829.6213757225432T1299.0087328253642 831.2613757225433T1297.368732825364 832.3613757225432T1295.368732825364 832.7613757225433H1293.9587328253642Q1292.8987328253643 832.7613757225433 1291.9587328253642 832.3613757225432T1290.3187328253641 831.2613757225433T1289.2187328253642 829.6213757225432T1288.8187328253641 827.6213757225432V819.7313757225434Q1288.8187328253641 818.6713757225433 1289.2187328253642 817.7313757225434T1290.3187328253641 816.0913757225433Q1291.0187328253642 815.3813757225433 1291.9587328253642 814.9813757225434T1293.9587328253642 814.5813757225433H1295.368732825364Q1296.428732825364 814.5813757225433 1297.368732825364 814.9813757225434T1299.0087328253642 816.0913757225433Q1299.7087328253642 816.7913757225433 1300.108732825364 817.7313757225434T1300.5087328253642 819.7313757225434ZM1298.408732825364 827.7413757225434V819.6113757225432Q1298.408732825364 818.9713757225434 1298.168732825364 818.4213757225433Q1297.928732825364 817.8613757225432 1297.5187328253642 817.4513757225433T1296.5487328253641 816.8013757225433Q1295.9987328253642 816.5613757225433 1295.368732825364 816.5613757225433H1293.9587328253642Q1293.328732825364 816.5613757225433 1292.7787328253642 816.8013757225433Q1292.2187328253642 817.0413757225433 1291.8087328253641 817.4513757225433T1291.1587328253643 818.4213757225433Q1290.9187328253643 818.9713757225434 1290.9187328253643 819.6113757225432V827.7413757225434Q1290.9187328253643 828.3713757225432 1291.1587328253643 828.9313757225433Q1291.3987328253643 829.4813757225434 1291.8087328253641 829.8913757225432T1292.7787328253642 830.5413757225433Q1293.328732825364 830.7813757225433 1293.9587328253642 830.7813757225433H1295.368732825364Q1295.9987328253642 830.7813757225433 1296.5487328253641 830.5413757225433Q1297.108732825364 830.3013757225433 1297.5187328253642 829.8913757225432T1298.168732825364 828.9313757225433Q1298.408732825364 828.3713757225432 1298.408732825364 827.7413757225434M1316.398732825364 832.4213757225433H1314.2987328253641V819.6113757225432Q1314.2987328253641 818.9713757225434 1314.0587328253641 818.4213757225433Q1313.8187328253641 817.8613757225432 1313.408732825364 817.4513757225433T1312.448732825364 816.8013757225433Q1311.888732825364 816.5613757225433 1311.258732825364 816.5613757225433H1309.858732825364Q1309.228732825364 816.5613757225433 1308.668732825364 816.8013757225433T1307.698732825364 817.4513757225433T1307.058732825364 818.4213757225433Q1306.818732825364 818.9713757225434 1306.818732825364 819.6113757225432V832.4213757225433H1304.708732825364V814.9213757225433H1305.408732825364L1306.558732825364 816.7013757225433Q1307.278732825364 815.7313757225432 1308.3587328253639 815.1513757225432Q1309.448732825364 814.5813757225433 1310.728732825364 814.5813757225433H1311.258732825364Q1312.318732825364 814.5813757225433 1313.258732825364 814.9813757225432T1314.8987328253638 816.0913757225433Q1315.5987328253639 816.7913757225433 1315.998732825364 817.7313757225432T1316.3987328253638 819.7313757225432ZM1323.588732825364 832.4213757225433H1320.9587328253642V829.7913757225433H1323.588732825364Z "></path><path fill="#282828" stroke="#282828" stroke-width="2" d="M811.4987328253637 823.6313757225435H997.5587328253638 "></path></g><rect width="712" height="144" x="647.6665465100446" y="678" id="space-saver" fill="transparent" stroke="transparent"></rect></g></svg>