<svg xmlns="http://www.w3.org/2000/svg" xml:space="preserve" width="2000" height="130" viewBox="0 0 2000 130" data-version="1" data-id="lg_frkCHgkHDDUM6RRQSE"><g id="outer-wrapper" data-padding="20" transform="matrix(0.9998923192886919,0,0,0.9998923192886919,0.10768071130803492,0.00699924623502568)"><g id="inner-wrapper" transform="matrix(0.8461538461538461,0,0,0.8461538461538461,10,10)"><path fill="#309255" d="M1170.0000000000002 -0.007000000000005002A65.007 65.007 0 1 0 1170.0000000000002 130.007A65.007 65.007 0 1 0 1170.0000000000002 -0.007000000000005002 "></path><path fill="#282828" d="M1173.6560000000002 79.55700000000002A14.39 14.39 0 0 0 1169.7370000000003 66.952A13.645 13.645 0 0 1 1167.8180000000002 92.24200000000002A1.677 1.677 0 0 0 1168.8080000000002 95.44400000000002C1177.0850000000003 92.86000000000001 1182.0900000000001 84.46000000000004 1180.4230000000002 75.95100000000002A13.655 13.655 0 0 0 1176.0090000000002 53.528999999999996A27.88 27.88 0 0 1 1160.5770000000002 37.985000000000014A38.18 38.18 0 0 0 1158.1830000000002 71.255A13.635 13.635 0 0 0 1173.6460000000002 79.55700000000002M1196.2850000000003 39.97200000000004C1209.8720000000003 46.24300000000005 1216.9880000000003 61.372000000000014 1213.1520000000003 75.83700000000005L1217.4950000000003 79.81700000000006L1196.9310000000003 90.03700000000009L1201.2240000000002 64.9190000000001L1205.2940000000003 68.64600000000007A30.8 30.8 0 0 0 1196.2850000000003 39.962000000000046M1143.2150000000001 93.92800000000005C1129.6280000000002 87.65700000000004 1122.5120000000002 72.52800000000008 1126.3480000000002 58.063000000000045L1122.0050000000003 54.08300000000003L1142.5580000000002 43.85300000000001L1138.2660000000003 68.981L1134.1960000000001 65.24399999999997A30.8 30.8 0 0 0 1143.2050000000002 93.928 "></path></g><rect width="130" height="130" x="935" y="0" id="space-saver" fill="transparent" stroke="transparent"></rect></g></svg>